<svg width="158" height="50" viewBox="0 0 158 50" fill="none" xmlns="http://www.w3.org/2000/svg">
<path d="M0 8.00001C0 3.58173 3.58172 0 8 0H149.373C153.791 0 157.373 3.58172 157.373 8V41.0177C157.373 45.436 153.791 49.0178 149.373 49.0178H8.00001C3.58173 49.0178 0 45.436 0 41.0178V8.00001Z" fill="white"/>
<path d="M36.1175 30.2311C36.314 30.112 36.5023 29.9763 36.7078 29.8759C37.2621 29.6044 37.878 29.8142 38.2268 30.3779C37.9091 30.729 37.5424 31.0268 37.1908 31.3411C36.2822 32.1555 35.3805 32.9782 34.4746 33.796C33.7923 34.4123 33.1203 35.0411 32.4214 35.638C31.1896 36.6906 29.7675 37.0528 28.1938 36.6587C27.1343 36.3935 26.1399 35.9247 25.1109 35.5611C24.1033 35.2052 23.1351 34.6858 22.0099 34.8375C22.0092 33.3625 22.0092 31.8875 22.0078 30.4132C22.0078 30.2907 22.003 30.1812 22.14 30.1071C22.7656 29.7678 23.3587 29.3717 24.0964 29.2755C24.7268 29.1938 25.306 29.3295 25.8818 29.549C25.9939 29.5919 26.1095 29.6231 26.2236 29.6591C26.4928 29.817 26.7932 29.8994 27.0811 30.0116C28.3959 30.5233 29.7094 31.0371 31.0304 31.5316C31.6546 31.7656 31.9861 32.3446 31.8615 32.9013C31.8505 32.9512 31.8456 33.0059 31.9065 33.0343C31.8346 33.0945 31.7557 33.1478 31.692 33.2157C31.4339 33.4941 31.1245 33.5509 30.773 33.4428C29.5654 33.0724 28.3571 32.7019 27.1496 32.3314C26.7959 32.2234 26.4444 32.1105 26.088 32.0129C25.9212 31.9672 25.7302 31.9311 25.661 32.1638C25.5939 32.3903 25.7572 32.4657 25.9288 32.526C25.9614 32.5371 25.9932 32.5495 26.0264 32.5599C27.4554 33.0024 28.8824 33.4491 30.3142 33.8819C30.5827 33.9629 30.8491 34.0931 31.1405 34.0571C31.919 33.9608 32.42 33.4484 32.5217 32.6569C32.8491 32.4346 33.1764 32.2116 33.5044 31.99C34.375 31.4042 35.2462 30.8176 36.1175 30.2311Z" fill="#FEC6AD"/>
<path d="M27.7051 14.4687C28.4788 13.7769 29.1583 12.9695 30.0697 12.4446C30.9078 11.9626 31.8192 11.8705 32.7278 12.178C34.0786 12.6357 35.4163 13.135 36.7471 13.6495C37.2031 13.8261 37.6564 13.7956 38.1179 13.8012C38.1906 13.8718 38.1643 13.9625 38.1643 14.0456C38.165 15.2429 38.1643 16.4395 38.1636 17.6369C38.0882 17.7137 38.1352 17.8127 38.1152 17.8993C37.7955 18.0683 37.4799 18.2455 37.1553 18.4034C36.4446 18.7504 35.718 18.7587 34.9831 18.4775C34.0765 18.1299 33.1575 17.8107 32.2655 17.4284C31.406 17.0607 30.4372 16.9194 29.7202 16.2429C29.9292 15.7291 30.4296 15.5088 31.0164 15.684C31.9001 15.9486 32.7818 16.2214 33.6641 16.4908C33.8426 16.5483 34.0205 16.6078 34.1997 16.6625C34.4198 16.7304 34.5353 16.6397 34.4883 16.4195C34.3907 15.9603 34.28 15.504 34.1741 15.047C34.0613 14.5131 33.9513 13.9785 33.8329 13.4459C33.7914 13.2597 33.6627 13.1676 33.471 13.2098C32.8952 13.3365 32.3216 13.4709 31.7472 13.6024C31.078 13.7479 30.4088 13.8954 29.7389 14.0387C29.0628 14.1848 28.384 14.3261 27.7051 14.4687Z" fill="#FDC6AE"/>
<path d="M22.0118 34.8373C23.137 34.6856 24.1051 35.205 25.1127 35.5609C26.1418 35.9245 27.1362 36.3933 28.1957 36.6585C29.7693 37.0525 31.1915 36.6897 32.4233 35.6378C33.1222 35.0409 33.7935 34.4121 34.4765 33.7958C35.3823 32.978 36.2841 32.1553 37.1927 31.3409C37.5442 31.0258 37.911 30.7288 38.2286 30.3777C38.5117 30.861 38.3947 31.4642 37.9463 31.8686C36.5207 33.1559 35.1035 34.4523 33.6689 35.7292C33.0717 36.2603 32.5277 36.8593 31.8371 37.2783C30.4108 38.1439 28.9265 38.2014 27.3846 37.6044C26.0774 37.0982 24.7577 36.6246 23.4429 36.1385C23.2318 36.0602 23.0138 36.0207 22.7861 36.027C22.528 36.0346 22.2692 36.0242 22.0111 36.0221C22.0097 36.0055 22.0062 35.9896 22 35.9743C22.0007 35.5928 22.0007 35.2105 22.0014 34.829L22.0118 34.8373Z" fill="#FEA990"/>
<path d="M38.1624 17.6369C38.1631 16.4396 38.1645 15.243 38.1631 14.0457C38.1631 13.9626 38.1894 13.8712 38.1168 13.8012C38.1168 13.5339 38.1216 13.2659 38.1154 12.9986C38.1119 12.8636 38.1666 12.8165 38.2988 12.8179C38.7645 12.8227 39.2302 12.8262 39.696 12.8165C39.907 12.8124 39.8773 12.9481 39.8773 13.0762C39.8773 14.1807 39.8842 15.2852 39.8717 16.3897C39.869 16.6314 39.923 16.7318 40.1811 16.7104C40.4468 16.6882 40.716 16.6937 40.9824 16.709C41.1817 16.7207 41.2288 16.6453 41.2274 16.4562C41.2198 15.3434 41.2302 14.2299 41.2184 13.1171C41.2157 12.8809 41.2772 12.8013 41.5195 12.8137C41.9236 12.8338 42.3298 12.8276 42.7346 12.8151C42.9236 12.8096 42.9886 12.8615 42.9879 13.0603C42.9789 14.5872 42.981 16.1148 42.9803 17.6417C41.3741 17.6411 39.7686 17.639 38.1624 17.6369Z" fill="#E7EEFE"/>
<path d="M31.9065 33.0349C31.8456 33.0058 31.8505 32.9518 31.8615 32.9019C31.9861 32.3445 31.6546 31.7655 31.0304 31.5322C29.7093 31.0377 28.3959 30.5239 27.081 30.0122C26.7932 29.9 26.4928 29.8176 26.2236 29.6597C26.2409 29.1237 26.1807 28.5864 26.2548 28.0518C26.9821 28.3308 27.708 28.6127 28.436 28.889C28.899 29.0649 29.3481 29.2775 29.8305 29.4007C29.8436 29.5344 29.919 29.4804 29.9862 29.4527C30.2484 29.6216 30.5446 29.7137 30.836 29.8107C31.4 29.9976 31.8069 30.3106 31.8816 30.9505C31.8989 31.098 31.7889 31.2344 31.8733 31.3791C31.9487 31.3937 31.9972 31.339 32.0532 31.3016C32.4608 31.0294 32.8684 30.7573 33.2774 30.4865C34.2172 29.8647 35.157 29.2442 36.0967 28.6237C36.1029 29.1597 36.1092 29.6957 36.1161 30.2317C35.2448 30.8182 34.3736 31.4048 33.5023 31.992C33.1743 32.2136 32.847 32.4366 32.5197 32.6589C32.2927 32.7454 32.1162 32.9165 31.9065 33.0349Z" fill="#4EAAFE"/>
<path d="M36.0988 28.6231C35.1591 29.2442 34.2186 29.8647 33.2795 30.4859C32.8706 30.7566 32.463 31.0281 32.0554 31.3009C31.9986 31.339 31.9509 31.393 31.8754 31.3785C31.7903 31.2344 31.9003 31.098 31.8837 30.9498C31.809 30.31 31.4028 29.997 30.8381 29.81C30.5467 29.713 30.2506 29.6209 29.9883 29.452C30.3461 29.2304 30.7052 29.0109 31.0602 28.7851C31.1696 28.7159 31.2505 28.7581 31.3426 28.8156C31.6346 28.997 31.9273 29.1785 32.2263 29.3488C32.31 29.3966 32.3972 29.5164 32.4913 29.4596C32.5675 29.4139 32.5204 29.283 32.5211 29.1909C32.5232 28.1557 32.5232 27.1204 32.5232 26.0851C33.2387 26.0844 33.9536 26.0837 34.6691 26.0837C35.265 26.0837 35.2719 26.0837 35.267 26.6703C35.265 26.9265 35.3591 27.1162 35.5964 27.1966C35.8165 27.2713 35.9632 27.1155 36.0968 26.9653C36.0968 27.5179 36.0982 28.0705 36.0988 28.6231Z" fill="#4DC7FE"/>
<path d="M38.1638 17.6367C39.7693 17.6388 41.3755 17.6402 42.981 17.6423C42.9817 18.3929 42.9775 19.1429 42.9872 19.8935C42.9893 20.0736 42.9346 20.1297 42.7533 20.129C41.2883 20.1227 39.8226 20.1214 38.3576 20.1297C38.1562 20.131 38.1091 20.0611 38.1154 19.8748C38.1264 19.5217 38.1154 19.1678 38.1133 18.8146C38.114 18.5099 38.1147 18.2046 38.1154 17.8992C38.1354 17.8126 38.0884 17.7136 38.1638 17.6367Z" fill="#CAD0FE"/>
<path d="M33.2571 20.4045C32.0641 20.6684 30.871 20.9322 29.678 21.1961C29.6766 20.9246 29.6752 20.6538 29.6738 20.3824C29.6759 19.2779 29.6773 18.1734 29.6794 17.0688C29.6911 17.0695 29.7022 17.0695 29.714 17.0702C29.869 17.3548 30.105 17.5293 30.4081 17.6436C31.4447 18.0349 32.4758 18.4407 33.509 18.8416C33.4557 18.9559 33.4018 19.0694 33.3499 19.1837C33.1713 19.5791 33.1935 19.9904 33.2571 20.4045Z" fill="#017372"/>
<path d="M29.8315 29.4001C29.3492 29.2775 28.9001 29.0642 28.4371 28.8883C27.7091 28.612 26.9825 28.3302 26.2559 28.0511C26.2572 27.689 26.2586 27.3268 26.26 26.9646C26.3894 27.1377 26.5458 27.2783 26.7763 27.1911C27.0122 27.1024 27.107 26.9092 27.0891 26.6572C27.0808 26.5464 27.0981 26.4328 27.0856 26.3227C27.0621 26.1226 27.1513 26.0782 27.3368 26.0796C28.1693 26.0886 29.0018 26.0838 29.8343 26.0845C29.8329 27.1904 29.8322 28.2956 29.8315 29.4001Z" fill="#4DC7FE"/>
<path d="M33.5075 18.8409C32.4743 18.4407 31.4432 18.0342 30.4066 17.6429C30.1028 17.528 29.8668 17.3535 29.7125 17.0695C29.7014 17.0522 29.6896 17.0349 29.6786 17.0169L29.6765 17.0135C29.6751 16.9587 29.6799 16.9013 29.6246 16.8653C29.637 16.6547 29.5734 16.4331 29.7187 16.2434C30.4356 16.9193 31.4045 17.0605 32.264 17.4289C33.156 17.8105 34.0743 18.1304 34.9815 18.4781C35.7165 18.7599 36.4424 18.7509 37.1538 18.404C37.4784 18.2454 37.7939 18.0681 38.1136 17.8998C38.1129 18.2052 38.1122 18.5099 38.1116 18.8153C37.9441 18.9032 37.7711 18.9822 37.6112 19.0819C36.8576 19.55 36.0493 19.683 35.1857 19.4891C34.6265 19.2723 34.0674 19.057 33.5075 18.8409Z" fill="#FEA990"/>
<path d="M27.7043 14.4687C28.3832 14.326 29.0621 14.1848 29.7403 14.04C30.4101 13.8967 31.0793 13.7492 31.7485 13.6038C31.7541 13.9001 31.9277 14.1287 32.0585 14.3745C31.5153 14.4936 30.9728 14.6141 30.4295 14.7325C28.5991 15.1307 26.768 15.5289 24.9376 15.9257C24.3446 16.0545 23.7584 16.2179 23.1543 16.2927C23.1598 16.0212 23.1543 15.7512 23.0996 15.4839C24.6345 15.1452 26.1694 14.8066 27.7043 14.4687Z" fill="#028C72"/>
<path d="M29.2617 25.2327C29.4105 25.1655 29.569 25.2258 29.7372 25.1912C29.6313 25.1011 29.5358 25.0139 29.4334 24.9343C28.9524 24.5596 28.9178 23.7162 29.3835 23.1933C29.7268 22.8083 30.6486 22.7176 31.0575 23.1414C31.1572 23.2446 31.2181 23.2134 31.3122 23.1317C31.6548 22.8333 32.3136 22.7682 32.6956 22.9835C33.1232 23.2238 33.2935 23.6538 33.2658 24.1829C33.2409 24.6545 32.9772 24.9301 32.6146 25.1815C32.7994 25.2369 32.9827 25.16 33.1488 25.2327C32.9412 25.2396 32.7343 25.2466 32.5267 25.2542C32.4783 25.241 32.4298 25.2161 32.3814 25.2161C31.58 25.214 30.7793 25.214 29.978 25.2161C29.9295 25.2161 29.8811 25.241 29.8327 25.2535C29.6417 25.2466 29.4514 25.2396 29.2617 25.2327ZM30.8686 24.1753C30.8513 24.0382 30.9094 23.8685 30.8389 23.7141C30.7441 23.5077 30.3621 23.3498 30.1226 23.4046C29.8036 23.4773 29.6472 23.6476 29.6257 23.9454C29.5911 24.4343 29.8257 24.6836 30.3212 24.685C30.8686 24.6863 30.8686 24.6863 30.8686 24.1753ZM31.9426 24.685C32.1087 24.6704 32.3025 24.7265 32.4741 24.6019C32.7412 24.4066 32.8312 23.9565 32.6485 23.6996C32.4575 23.4316 31.9648 23.3353 31.706 23.5209C31.5752 23.6151 31.4859 23.7383 31.4901 23.9115C31.4921 24.0146 31.4949 24.1185 31.4894 24.2217C31.4624 24.685 31.4617 24.685 31.9426 24.685Z" fill="#E7EEFE"/>
<path d="M29.6736 20.3826C29.675 20.654 29.6763 20.9248 29.6777 21.1962C28.0369 21.5577 26.3962 21.9199 24.7554 22.2807C24.7055 22.2917 24.6536 22.2952 24.6031 22.3028C24.5983 22.0037 24.4253 21.7724 24.291 21.5252C25.5422 21.2544 26.792 20.9809 28.0439 20.7136C28.5864 20.5972 29.1172 20.4262 29.6736 20.3826Z" fill="#028C72"/>
<path d="M29.2616 25.2327C29.4519 25.2396 29.6415 25.2465 29.8318 25.2534C29.8325 25.5304 29.8332 25.8081 29.8339 26.0851L29.8346 26.0844C29.0021 26.0837 28.1695 26.0886 27.337 26.0796C27.1516 26.0775 27.0623 26.1225 27.0858 26.3226C27.099 26.4327 27.0817 26.5463 27.0893 26.6571C27.108 26.9092 27.0125 27.1024 26.7765 27.191C26.5461 27.2776 26.3897 27.1377 26.2603 26.9646C26.1911 26.5636 26.189 26.1599 26.2561 25.7603C26.3122 25.4252 26.5225 25.2534 26.8637 25.2493C27.6623 25.2389 28.4616 25.2375 29.2616 25.2327Z" fill="#61E5FE"/>
<path d="M32.5249 25.2541C32.7326 25.2472 32.9395 25.2403 33.1471 25.2327C33.8848 25.2368 34.6225 25.241 35.3602 25.2458C35.911 25.2493 36.1055 25.4404 36.1069 25.9875C36.1075 26.3136 36.0992 26.6398 36.0951 26.966C35.9615 27.1169 35.8148 27.272 35.5948 27.1972C35.3574 27.1169 35.2633 26.9272 35.2654 26.671C35.2709 26.0844 35.264 26.0837 34.6674 26.0844C33.9519 26.0844 33.237 26.0858 32.5215 26.0858L32.5222 26.0865C32.5236 25.8088 32.5243 25.5318 32.5249 25.2541Z" fill="#61E5FE"/>
<path d="M33.5076 18.8411C34.0667 19.0571 34.6266 19.2725 35.1857 19.4885C35.2681 19.8999 35.2058 19.992 34.8044 20.0751C34.2875 20.1824 33.7719 20.2946 33.2557 20.4047C33.192 19.9906 33.1692 19.5793 33.3484 19.1838C33.4003 19.0689 33.455 18.9553 33.5076 18.8411Z" fill="#016E72"/>
<path d="M31.9062 33.0349C32.1158 32.9172 32.2923 32.7454 32.5207 32.6582C32.419 33.4504 31.9186 33.9628 31.1394 34.0584C30.8474 34.0944 30.5809 33.9642 30.3131 33.8832C28.8813 33.4504 27.4544 33.0037 26.0254 32.5612C25.9928 32.5508 25.9603 32.5384 25.9278 32.5273C25.7562 32.4671 25.5928 32.3909 25.66 32.1651C25.7292 31.9325 25.9202 31.9685 26.0869 32.0142C26.4433 32.1118 26.7956 32.2247 27.1485 32.3327C28.3568 32.7025 29.5644 33.073 30.7719 33.4441C31.1235 33.5522 31.4328 33.4954 31.6909 33.217C31.7553 33.1478 31.8342 33.0944 31.9062 33.0349Z" fill="#FEA990"/>
<path d="M23.1012 20.798C23.1026 20.4067 22.9649 20.0411 22.8881 19.6651C22.7462 18.9691 22.5808 18.278 22.4258 17.5856C22.7815 17.2185 23.0915 16.8252 23.1538 16.2927C23.7579 16.2179 24.3441 16.0538 24.9371 15.9257C26.7682 15.5289 28.5986 15.1307 30.429 14.7325C30.9723 14.6141 31.5148 14.4936 32.0581 14.3745C32.3875 14.8399 32.867 15.0455 33.4033 15.1536C33.4144 15.6141 33.5923 16.0427 33.6635 16.4921C32.7812 16.2228 31.8996 15.9499 31.0159 15.6854C30.4283 15.5095 29.9287 15.7304 29.7197 16.2442C29.5744 16.4347 29.638 16.6562 29.6256 16.8661C29.6277 16.9208 29.6145 16.981 29.6775 17.0143L29.6796 17.0177C29.6775 17.035 29.6775 17.0517 29.6789 17.069C29.6775 18.1735 29.6754 19.278 29.6733 20.3825C29.117 20.4261 28.5855 20.5972 28.0436 20.7128C26.7918 20.9801 25.542 21.2536 24.2908 21.5244C23.9531 21.1865 23.5918 20.8859 23.1012 20.798ZM27.036 17.929C27.0319 18.5917 27.58 19.1423 28.2492 19.1395C28.9523 19.1367 29.445 18.5481 29.4623 17.9415C29.4803 17.303 28.8879 16.6978 28.2789 16.7096C27.5827 16.7234 27.0229 17.2816 27.036 17.929Z" fill="#009F72"/>
<path d="M33.4053 15.1527C32.869 15.0454 32.3894 14.839 32.06 14.3737C31.9292 14.1279 31.7548 13.8993 31.75 13.603C32.3244 13.4714 32.8988 13.337 33.4738 13.2103C33.6655 13.1681 33.7942 13.2602 33.8358 13.4465C33.9541 13.979 34.0634 14.5136 34.1769 15.0475C33.9278 15.1458 33.6676 15.1583 33.4053 15.1527Z" fill="#016E72"/>
<path d="M33.4043 15.1529C33.6666 15.1584 33.9268 15.1459 34.1752 15.0476C34.2804 15.5053 34.3911 15.961 34.4894 16.4201C34.5364 16.6396 34.4202 16.7303 34.2008 16.6632C34.0216 16.6078 33.8437 16.5489 33.6652 16.4914C33.5925 16.042 33.4154 15.6141 33.4043 15.1529Z" fill="#028C72"/>
<path d="M29.832 29.3999C29.8327 28.2947 29.8334 27.1895 29.8341 26.085L29.8334 26.0857C30.7303 26.0857 31.6271 26.0857 32.524 26.0863L32.5233 26.0857C32.5233 27.1209 32.5233 28.1562 32.5212 29.1914C32.5212 29.2835 32.5676 29.4144 32.4915 29.4601C32.3974 29.5169 32.3102 29.3971 32.2264 29.3493C31.9275 29.179 31.6348 28.9975 31.3427 28.8161C31.2507 28.7586 31.1697 28.7164 31.0604 28.7856C30.7054 29.0114 30.3455 29.2309 29.9884 29.4525C29.9213 29.4795 29.8452 29.5342 29.832 29.3999Z" fill="#4D7ED2"/>
<path d="M29.6785 17.0683C29.6771 17.051 29.6778 17.0337 29.6792 17.0171C29.6903 17.0344 29.702 17.0524 29.7131 17.0697C29.702 17.0697 29.6903 17.069 29.6785 17.0683Z" fill="#028C72"/>
<path d="M29.6789 17.0134C29.6159 16.9802 29.629 16.9199 29.627 16.8652C29.6823 16.9012 29.6768 16.9587 29.6789 17.0134Z" fill="#028C72"/>
<path d="M32.5227 26.0857C31.6259 26.0857 30.729 26.085 29.8322 26.085C29.8315 25.808 29.8308 25.5303 29.8301 25.2533C29.8785 25.2402 29.927 25.2159 29.9754 25.2159C30.7768 25.2138 31.5774 25.2138 32.3788 25.2159C32.4272 25.2159 32.4757 25.2408 32.5241 25.254C32.5241 25.5317 32.5234 25.8087 32.5227 26.0857Z" fill="#4DC7FE"/>
<path d="M27.0373 17.9291C27.0242 17.2809 27.584 16.7228 28.2802 16.7096C28.8892 16.6979 29.4816 17.3031 29.4636 17.9416C29.4463 18.5475 28.9535 19.1368 28.2505 19.1396C27.5806 19.143 27.0332 18.5925 27.0373 17.9291Z" fill="#016E72"/>
<path d="M55.0678 23H54.011C53.9485 22.696 53.8391 22.429 53.6829 22.1989C53.5295 21.9688 53.342 21.7756 53.1204 21.6193C52.9016 21.4602 52.6587 21.3409 52.3917 21.2614C52.1246 21.1818 51.8462 21.142 51.5565 21.142C51.0281 21.142 50.5494 21.2756 50.1204 21.5426C49.6942 21.8097 49.3548 22.2031 49.1019 22.723C48.8519 23.2429 48.7269 23.8807 48.7269 24.6364C48.7269 25.392 48.8519 26.0298 49.1019 26.5497C49.3548 27.0696 49.6942 27.4631 50.1204 27.7301C50.5494 27.9972 51.0281 28.1307 51.5565 28.1307C51.8462 28.1307 52.1246 28.0909 52.3917 28.0114C52.6587 27.9318 52.9016 27.8139 53.1204 27.6577C53.342 27.4986 53.5295 27.304 53.6829 27.0739C53.8391 26.8409 53.9485 26.5739 54.011 26.2727H55.0678C54.9883 26.7187 54.8434 27.1179 54.6332 27.4702C54.4229 27.8224 54.1616 28.1222 53.8491 28.3693C53.5366 28.6136 53.1857 28.7997 52.7965 28.9276C52.4102 29.0554 51.9968 29.1193 51.5565 29.1193C50.8121 29.1193 50.1502 28.9375 49.5707 28.5739C48.9911 28.2102 48.5352 27.6932 48.2028 27.0227C47.8704 26.3523 47.7042 25.5568 47.7042 24.6364C47.7042 23.7159 47.8704 22.9205 48.2028 22.25C48.5352 21.5795 48.9911 21.0625 49.5707 20.6989C50.1502 20.3352 50.8121 20.1534 51.5565 20.1534C51.9968 20.1534 52.4102 20.2173 52.7965 20.3452C53.1857 20.473 53.5366 20.6605 53.8491 20.9077C54.1616 21.152 54.4229 21.4503 54.6332 21.8026C54.8434 22.152 54.9883 22.5511 55.0678 23ZM58.5653 29.1534C58.1506 29.1534 57.7741 29.0753 57.4361 28.919C57.098 28.7599 56.8295 28.5312 56.6307 28.233C56.4318 27.9318 56.3324 27.5682 56.3324 27.142C56.3324 26.767 56.4063 26.4631 56.554 26.2301C56.7017 25.9943 56.8991 25.8097 57.1463 25.6761C57.3935 25.5426 57.6662 25.4432 57.9645 25.3778C58.2656 25.3097 58.5682 25.2557 58.8722 25.2159C59.2699 25.1648 59.5923 25.1264 59.8395 25.1009C60.0895 25.0724 60.2713 25.0256 60.3849 24.9602C60.5014 24.8949 60.5597 24.7812 60.5597 24.6193V24.5852C60.5597 24.1648 60.4446 23.8381 60.2145 23.6051C59.9872 23.3722 59.642 23.2557 59.179 23.2557C58.6989 23.2557 58.3224 23.3608 58.0497 23.571C57.777 23.7812 57.5852 24.0057 57.4744 24.2443L56.5199 23.9034C56.6903 23.5057 56.9176 23.196 57.2017 22.9744C57.4886 22.75 57.8011 22.5937 58.1392 22.5057C58.4801 22.4148 58.8153 22.3693 59.1449 22.3693C59.3551 22.3693 59.5966 22.3949 59.8693 22.446C60.1449 22.4943 60.4105 22.5952 60.6662 22.7486C60.9247 22.902 61.1392 23.1335 61.3097 23.4432C61.4801 23.7528 61.5653 24.1676 61.5653 24.6875V29H60.5597V28.1136H60.5085C60.4403 28.2557 60.3267 28.4077 60.1676 28.5696C60.0085 28.7315 59.7969 28.8693 59.5327 28.983C59.2685 29.0966 58.946 29.1534 58.5653 29.1534ZM58.7188 28.25C59.1165 28.25 59.4517 28.1719 59.7244 28.0156C60 27.8594 60.2074 27.6577 60.3466 27.4105C60.4886 27.1634 60.5597 26.9034 60.5597 26.6307V25.7102C60.517 25.7614 60.4233 25.8082 60.2784 25.8509C60.1364 25.8906 59.9716 25.9261 59.7841 25.9574C59.5994 25.9858 59.419 26.0114 59.2429 26.0341C59.0696 26.054 58.929 26.071 58.821 26.0852C58.5597 26.1193 58.3153 26.1747 58.0881 26.2514C57.8636 26.3253 57.6818 26.4375 57.5426 26.5881C57.4063 26.7358 57.3381 26.9375 57.3381 27.1932C57.3381 27.5426 57.4673 27.8068 57.7259 27.9858C57.9872 28.1619 58.3182 28.25 58.7188 28.25ZM68.0373 23.9205L67.1339 24.1761C67.0771 24.0256 66.9933 23.8793 66.8825 23.7372C66.7745 23.5923 66.6268 23.473 66.4393 23.3793C66.2518 23.2855 66.0117 23.2386 65.7191 23.2386C65.3185 23.2386 64.9847 23.331 64.7177 23.5156C64.4535 23.6974 64.3214 23.929 64.3214 24.2102C64.3214 24.4602 64.4123 24.6577 64.5941 24.8026C64.7759 24.9474 65.06 25.0682 65.4464 25.1648L66.418 25.4034C67.0032 25.5455 67.4393 25.7628 67.7262 26.0554C68.0131 26.3452 68.1566 26.7187 68.1566 27.1761C68.1566 27.5511 68.0487 27.8864 67.8327 28.1818C67.6197 28.4773 67.3214 28.7102 66.9379 28.8807C66.5543 29.0511 66.1083 29.1364 65.5998 29.1364C64.9322 29.1364 64.3796 28.9915 63.9421 28.7017C63.5046 28.4119 63.2276 27.9886 63.1112 27.4318L64.0657 27.1932C64.1566 27.5455 64.3285 27.8097 64.5813 27.9858C64.837 28.1619 65.1708 28.25 65.5827 28.25C66.0515 28.25 66.4237 28.1506 66.6992 27.9517C66.9776 27.75 67.1168 27.5085 67.1168 27.2273C67.1168 27 67.0373 26.8097 66.8782 26.6562C66.7191 26.5 66.4748 26.3835 66.1452 26.3068L65.0543 26.0511C64.4549 25.9091 64.0146 25.6889 63.7333 25.3906C63.4549 25.0895 63.3157 24.7131 63.3157 24.2614C63.3157 23.892 63.4194 23.5653 63.6268 23.2812C63.837 22.9972 64.1225 22.7741 64.4833 22.6122C64.8469 22.4503 65.2589 22.3693 65.7191 22.3693C66.3668 22.3693 66.8754 22.5114 67.2447 22.7955C67.6168 23.0795 67.881 23.4545 68.0373 23.9205ZM70.6761 25.0625V29H69.6705V20.2727H70.6761V23.4773H70.7614C70.9148 23.1392 71.1449 22.8707 71.4517 22.6719C71.7614 22.4702 72.1733 22.3693 72.6875 22.3693C73.1335 22.3693 73.5241 22.4588 73.8594 22.6378C74.1946 22.8139 74.4545 23.0852 74.6392 23.4517C74.8267 23.8153 74.9205 24.2784 74.9205 24.8409V29H73.9148V24.9091C73.9148 24.3892 73.7798 23.9872 73.5099 23.7031C73.2429 23.4162 72.8722 23.2727 72.3977 23.2727C72.0682 23.2727 71.7727 23.3423 71.5114 23.4815C71.2528 23.6207 71.0483 23.8239 70.8977 24.0909C70.75 24.358 70.6761 24.6818 70.6761 25.0625ZM82.7944 29.1364C82.2035 29.1364 81.685 28.9957 81.239 28.7145C80.7958 28.4332 80.4492 28.0398 80.1992 27.5341C79.9521 27.0284 79.8285 26.4375 79.8285 25.7614C79.8285 25.0795 79.9521 24.4844 80.1992 23.9759C80.4492 23.4673 80.7958 23.0724 81.239 22.7912C81.685 22.5099 82.2035 22.3693 82.7944 22.3693C83.3853 22.3693 83.9023 22.5099 84.3455 22.7912C84.7915 23.0724 85.1381 23.4673 85.3853 23.9759C85.6353 24.4844 85.7603 25.0795 85.7603 25.7614C85.7603 26.4375 85.6353 27.0284 85.3853 27.5341C85.1381 28.0398 84.7915 28.4332 84.3455 28.7145C83.9023 28.9957 83.3853 29.1364 82.7944 29.1364ZM82.7944 28.233C83.2433 28.233 83.6126 28.1179 83.9023 27.8878C84.1921 27.6577 84.4066 27.3551 84.5458 26.9801C84.685 26.6051 84.7546 26.1989 84.7546 25.7614C84.7546 25.3239 84.685 24.9162 84.5458 24.5384C84.4066 24.1605 84.1921 23.8551 83.9023 23.6222C83.6126 23.3892 83.2433 23.2727 82.7944 23.2727C82.3455 23.2727 81.9762 23.3892 81.6864 23.6222C81.3967 23.8551 81.1822 24.1605 81.043 24.5384C80.9038 24.9162 80.8342 25.3239 80.8342 25.7614C80.8342 26.1989 80.9038 26.6051 81.043 26.9801C81.1822 27.3551 81.3967 27.6577 81.6864 27.8878C81.9762 28.1179 82.3455 28.233 82.7944 28.233ZM88.3011 25.0625V29H87.2955V22.4545H88.267V23.4773H88.3523C88.5057 23.1449 88.7386 22.8778 89.0511 22.6761C89.3636 22.4716 89.767 22.3693 90.2614 22.3693C90.7045 22.3693 91.0923 22.4602 91.4247 22.642C91.7571 22.821 92.0156 23.0938 92.2003 23.4602C92.3849 23.8239 92.4773 24.2841 92.4773 24.8409V29H91.4716V24.9091C91.4716 24.3949 91.3381 23.9943 91.071 23.7074C90.804 23.4176 90.4375 23.2727 89.9716 23.2727C89.6506 23.2727 89.3636 23.3423 89.1108 23.4815C88.8608 23.6207 88.6634 23.8239 88.5185 24.0909C88.3736 24.358 88.3011 24.6818 88.3011 25.0625ZM100.52 29H97.8263V20.2727H100.639C101.485 20.2727 102.21 20.4474 102.812 20.7969C103.414 21.1435 103.876 21.642 104.197 22.2926C104.518 22.9403 104.679 23.7159 104.679 24.6193C104.679 25.5284 104.517 26.3111 104.193 26.9673C103.869 27.6207 103.397 28.1236 102.778 28.4759C102.159 28.8253 101.406 29 100.52 29ZM98.8832 28.0625H100.451C101.173 28.0625 101.771 27.9233 102.245 27.6449C102.72 27.3665 103.074 26.9702 103.306 26.456C103.539 25.9418 103.656 25.3295 103.656 24.6193C103.656 23.9148 103.541 23.3082 103.311 22.7997C103.081 22.2884 102.737 21.8963 102.279 21.6236C101.822 21.348 101.252 21.2102 100.571 21.2102H98.8832V28.0625ZM109.059 29.1364C108.429 29.1364 107.885 28.9972 107.427 28.7188C106.973 28.4375 106.622 28.0455 106.375 27.5426C106.13 27.0369 106.008 26.4489 106.008 25.7784C106.008 25.108 106.13 24.517 106.375 24.0057C106.622 23.4915 106.966 23.0909 107.406 22.804C107.849 22.5142 108.366 22.3693 108.957 22.3693C109.298 22.3693 109.635 22.4261 109.967 22.5398C110.299 22.6534 110.602 22.8381 110.875 23.0938C111.147 23.3466 111.365 23.6818 111.527 24.0994C111.689 24.517 111.77 25.0312 111.77 25.642V26.0682H106.724V25.1989H110.747C110.747 24.8295 110.673 24.5 110.525 24.2102C110.38 23.9205 110.173 23.6918 109.903 23.5241C109.636 23.3565 109.321 23.2727 108.957 23.2727C108.556 23.2727 108.21 23.3722 107.917 23.571C107.627 23.767 107.404 24.0227 107.248 24.3381C107.092 24.6534 107.014 24.9915 107.014 25.3523V25.9318C107.014 26.4261 107.099 26.8452 107.27 27.1889C107.443 27.5298 107.683 27.7898 107.99 27.9688C108.297 28.1449 108.653 28.233 109.059 28.233C109.324 28.233 109.562 28.196 109.775 28.1222C109.991 28.0455 110.177 27.9318 110.333 27.7812C110.49 27.6278 110.61 27.4375 110.696 27.2102L111.667 27.483C111.565 27.8125 111.393 28.1023 111.152 28.3523C110.91 28.5994 110.612 28.7926 110.257 28.9318C109.902 29.0682 109.502 29.1364 109.059 29.1364ZM114.305 20.2727V29H113.299V20.2727H114.305ZM116.147 29V22.4545H117.153V29H116.147ZM116.658 21.3636C116.462 21.3636 116.293 21.2969 116.151 21.1634C116.012 21.0298 115.942 20.8693 115.942 20.6818C115.942 20.4943 116.012 20.3338 116.151 20.2003C116.293 20.0668 116.462 20 116.658 20C116.854 20 117.022 20.0668 117.161 20.2003C117.303 20.3338 117.374 20.4943 117.374 20.6818C117.374 20.8693 117.303 21.0298 117.161 21.1634C117.022 21.2969 116.854 21.3636 116.658 21.3636ZM124.347 22.4545L121.926 29H120.904L118.483 22.4545H119.574L121.381 27.6705H121.449L123.256 22.4545H124.347ZM128.184 29.1364C127.554 29.1364 127.01 28.9972 126.552 28.7188C126.098 28.4375 125.747 28.0455 125.5 27.5426C125.255 27.0369 125.133 26.4489 125.133 25.7784C125.133 25.108 125.255 24.517 125.5 24.0057C125.747 23.4915 126.091 23.0909 126.531 22.804C126.974 22.5142 127.491 22.3693 128.082 22.3693C128.423 22.3693 128.76 22.4261 129.092 22.5398C129.424 22.6534 129.727 22.8381 130 23.0938C130.272 23.3466 130.49 23.6818 130.652 24.0994C130.814 24.517 130.895 25.0312 130.895 25.642V26.0682H125.849V25.1989H129.872C129.872 24.8295 129.798 24.5 129.65 24.2102C129.505 23.9205 129.298 23.6918 129.028 23.5241C128.761 23.3565 128.446 23.2727 128.082 23.2727C127.681 23.2727 127.335 23.3722 127.042 23.571C126.752 23.767 126.529 24.0227 126.373 24.3381C126.217 24.6534 126.139 24.9915 126.139 25.3523V25.9318C126.139 26.4261 126.224 26.8452 126.395 27.1889C126.568 27.5298 126.808 27.7898 127.115 27.9688C127.422 28.1449 127.778 28.233 128.184 28.233C128.449 28.233 128.687 28.196 128.9 28.1222C129.116 28.0455 129.302 27.9318 129.458 27.7812C129.615 27.6278 129.735 27.4375 129.821 27.2102L130.792 27.483C130.69 27.8125 130.518 28.1023 130.277 28.3523C130.035 28.5994 129.737 28.7926 129.382 28.9318C129.027 29.0682 128.627 29.1364 128.184 29.1364ZM132.424 29V22.4545H133.396V23.4432H133.464C133.583 23.1193 133.799 22.8565 134.112 22.6548C134.424 22.4531 134.777 22.3523 135.169 22.3523C135.243 22.3523 135.335 22.3537 135.446 22.3565C135.556 22.3594 135.64 22.3636 135.697 22.3693V23.392C135.663 23.3835 135.585 23.3707 135.463 23.3537C135.343 23.3338 135.217 23.3239 135.083 23.3239C134.765 23.3239 134.481 23.3906 134.231 23.5241C133.984 23.6548 133.788 23.8366 133.643 24.0696C133.501 24.2997 133.43 24.5625 133.43 24.858V29H132.424ZM137.736 31.4545C137.566 31.4545 137.414 31.4403 137.28 31.4119C137.147 31.3864 137.054 31.3608 137.003 31.3352L137.259 30.4489C137.503 30.5114 137.719 30.5341 137.907 30.517C138.094 30.5 138.26 30.4162 138.405 30.2656C138.553 30.1179 138.688 29.8778 138.81 29.5455L138.998 29.0341L136.577 22.4545H137.668L139.475 27.6705H139.543L141.35 22.4545H142.441L139.662 29.9545C139.537 30.2926 139.382 30.5724 139.198 30.794C139.013 31.0185 138.799 31.1847 138.554 31.2926C138.313 31.4006 138.04 31.4545 137.736 31.4545Z" fill="#878A99"/>
</svg>
