<svg width="158" height="50" viewBox="0 0 158 50" fill="none" xmlns="http://www.w3.org/2000/svg">
<path d="M0 8.00001C0 3.58173 3.58172 0 8 0H149.373C153.791 0 157.373 3.58172 157.373 8V41.0177C157.373 45.436 153.791 49.0178 149.373 49.0178H8.00001C3.58173 49.0178 0 45.436 0 41.0178V8.00001Z" fill="white"/>
<path d="M36.1175 30.2311C36.314 30.112 36.5023 29.9763 36.7078 29.8759C37.2621 29.6044 37.878 29.8142 38.2268 30.3779C37.9091 30.729 37.5424 31.0268 37.1908 31.3411C36.2822 32.1555 35.3805 32.9782 34.4746 33.796C33.7923 34.4123 33.1203 35.0411 32.4214 35.638C31.1896 36.6906 29.7675 37.0528 28.1938 36.6587C27.1343 36.3935 26.1399 35.9247 25.1109 35.5611C24.1033 35.2052 23.1351 34.6858 22.0099 34.8375C22.0092 33.3625 22.0092 31.8875 22.0078 30.4132C22.0078 30.2907 22.003 30.1812 22.14 30.1071C22.7656 29.7678 23.3587 29.3717 24.0964 29.2755C24.7268 29.1938 25.306 29.3295 25.8818 29.549C25.9939 29.5919 26.1095 29.6231 26.2236 29.6591C26.4928 29.817 26.7932 29.8994 27.0811 30.0116C28.3959 30.5233 29.7094 31.0371 31.0304 31.5316C31.6546 31.7656 31.9861 32.3446 31.8615 32.9013C31.8505 32.9512 31.8456 33.0059 31.9065 33.0343C31.8346 33.0945 31.7557 33.1478 31.692 33.2157C31.4339 33.4941 31.1245 33.5509 30.773 33.4428C29.5654 33.0724 28.3571 32.7019 27.1496 32.3314C26.7959 32.2234 26.4444 32.1105 26.088 32.0129C25.9212 31.9672 25.7302 31.9311 25.661 32.1638C25.5939 32.3903 25.7572 32.4657 25.9288 32.526C25.9614 32.5371 25.9932 32.5495 26.0264 32.5599C27.4554 33.0024 28.8824 33.4491 30.3142 33.8819C30.5827 33.9629 30.8491 34.0931 31.1405 34.0571C31.919 33.9608 32.42 33.4484 32.5217 32.6569C32.8491 32.4346 33.1764 32.2116 33.5044 31.99C34.375 31.4042 35.2462 30.8176 36.1175 30.2311Z" fill="#FEC6AD"/>
<path d="M27.7051 14.4687C28.4788 13.7769 29.1583 12.9695 30.0697 12.4446C30.9078 11.9626 31.8192 11.8705 32.7278 12.178C34.0786 12.6357 35.4163 13.135 36.7471 13.6495C37.2031 13.8261 37.6564 13.7956 38.1179 13.8012C38.1906 13.8718 38.1643 13.9625 38.1643 14.0456C38.165 15.2429 38.1643 16.4395 38.1636 17.6369C38.0882 17.7137 38.1352 17.8127 38.1152 17.8993C37.7955 18.0683 37.4799 18.2455 37.1553 18.4034C36.4446 18.7504 35.718 18.7587 34.9831 18.4775C34.0765 18.1299 33.1575 17.8107 32.2655 17.4284C31.406 17.0607 30.4372 16.9194 29.7202 16.2429C29.9292 15.7291 30.4296 15.5088 31.0164 15.684C31.9001 15.9486 32.7818 16.2214 33.6641 16.4908C33.8426 16.5483 34.0205 16.6078 34.1997 16.6625C34.4198 16.7304 34.5353 16.6397 34.4883 16.4195C34.3907 15.9603 34.28 15.504 34.1741 15.047C34.0613 14.5131 33.9513 13.9785 33.8329 13.4459C33.7914 13.2597 33.6627 13.1676 33.471 13.2098C32.8952 13.3365 32.3216 13.4709 31.7472 13.6024C31.078 13.7479 30.4088 13.8954 29.7389 14.0387C29.0628 14.1848 28.384 14.3261 27.7051 14.4687Z" fill="#FDC6AE"/>
<path d="M22.0118 34.8373C23.137 34.6856 24.1051 35.205 25.1127 35.5609C26.1418 35.9245 27.1362 36.3933 28.1957 36.6585C29.7693 37.0525 31.1915 36.6897 32.4233 35.6378C33.1222 35.0409 33.7935 34.4121 34.4765 33.7958C35.3823 32.978 36.2841 32.1553 37.1927 31.3409C37.5442 31.0258 37.911 30.7288 38.2286 30.3777C38.5117 30.861 38.3947 31.4642 37.9463 31.8686C36.5207 33.1559 35.1035 34.4523 33.6689 35.7292C33.0717 36.2603 32.5277 36.8593 31.8371 37.2783C30.4108 38.1439 28.9265 38.2014 27.3846 37.6044C26.0774 37.0982 24.7577 36.6246 23.4429 36.1385C23.2318 36.0602 23.0138 36.0207 22.7861 36.027C22.528 36.0346 22.2692 36.0242 22.0111 36.0221C22.0097 36.0055 22.0062 35.9896 22 35.9743C22.0007 35.5928 22.0007 35.2105 22.0014 34.829L22.0118 34.8373Z" fill="#FEA990"/>
<path d="M38.1624 17.6369C38.1631 16.4396 38.1645 15.243 38.1631 14.0457C38.1631 13.9626 38.1894 13.8712 38.1168 13.8012C38.1168 13.5339 38.1216 13.2659 38.1154 12.9986C38.1119 12.8636 38.1666 12.8165 38.2988 12.8179C38.7645 12.8227 39.2302 12.8262 39.696 12.8165C39.907 12.8124 39.8773 12.9481 39.8773 13.0762C39.8773 14.1807 39.8842 15.2852 39.8717 16.3897C39.869 16.6314 39.923 16.7318 40.1811 16.7104C40.4468 16.6882 40.716 16.6937 40.9824 16.709C41.1817 16.7207 41.2288 16.6453 41.2274 16.4562C41.2198 15.3434 41.2302 14.2299 41.2184 13.1171C41.2157 12.8809 41.2772 12.8013 41.5195 12.8137C41.9236 12.8338 42.3298 12.8276 42.7346 12.8151C42.9236 12.8096 42.9886 12.8615 42.9879 13.0603C42.9789 14.5872 42.981 16.1148 42.9803 17.6417C41.3741 17.6411 39.7686 17.639 38.1624 17.6369Z" fill="#E7EEFE"/>
<path d="M31.9065 33.0349C31.8456 33.0058 31.8505 32.9518 31.8615 32.9019C31.9861 32.3445 31.6546 31.7655 31.0304 31.5322C29.7093 31.0377 28.3959 30.5239 27.081 30.0122C26.7932 29.9 26.4928 29.8176 26.2236 29.6597C26.2409 29.1237 26.1807 28.5864 26.2548 28.0518C26.9821 28.3308 27.708 28.6127 28.436 28.889C28.899 29.0649 29.3481 29.2775 29.8305 29.4007C29.8436 29.5344 29.919 29.4804 29.9862 29.4527C30.2484 29.6216 30.5446 29.7137 30.836 29.8107C31.4 29.9976 31.8069 30.3106 31.8816 30.9505C31.8989 31.098 31.7889 31.2344 31.8733 31.3791C31.9487 31.3937 31.9972 31.339 32.0532 31.3016C32.4608 31.0294 32.8684 30.7573 33.2774 30.4865C34.2172 29.8647 35.157 29.2442 36.0967 28.6237C36.1029 29.1597 36.1092 29.6957 36.1161 30.2317C35.2448 30.8182 34.3736 31.4048 33.5023 31.992C33.1743 32.2136 32.847 32.4366 32.5197 32.6589C32.2927 32.7454 32.1162 32.9165 31.9065 33.0349Z" fill="#4EAAFE"/>
<path d="M36.0988 28.6231C35.1591 29.2442 34.2186 29.8647 33.2795 30.4859C32.8706 30.7566 32.463 31.0281 32.0554 31.3009C31.9986 31.339 31.9509 31.393 31.8754 31.3785C31.7903 31.2344 31.9003 31.098 31.8837 30.9498C31.809 30.31 31.4028 29.997 30.8381 29.81C30.5467 29.713 30.2506 29.6209 29.9883 29.452C30.3461 29.2304 30.7052 29.0109 31.0602 28.7851C31.1696 28.7159 31.2505 28.7581 31.3426 28.8156C31.6346 28.997 31.9273 29.1785 32.2263 29.3488C32.31 29.3966 32.3972 29.5164 32.4913 29.4596C32.5675 29.4139 32.5204 29.283 32.5211 29.1909C32.5232 28.1557 32.5232 27.1204 32.5232 26.0851C33.2387 26.0844 33.9536 26.0837 34.6691 26.0837C35.265 26.0837 35.2719 26.0837 35.267 26.6703C35.265 26.9265 35.3591 27.1162 35.5964 27.1966C35.8165 27.2713 35.9632 27.1155 36.0968 26.9653C36.0968 27.5179 36.0982 28.0705 36.0988 28.6231Z" fill="#4DC7FE"/>
<path d="M38.1638 17.6367C39.7693 17.6388 41.3755 17.6402 42.981 17.6423C42.9817 18.3929 42.9775 19.1429 42.9872 19.8935C42.9893 20.0736 42.9346 20.1297 42.7533 20.129C41.2883 20.1227 39.8226 20.1214 38.3576 20.1297C38.1562 20.131 38.1091 20.0611 38.1154 19.8748C38.1264 19.5217 38.1154 19.1678 38.1133 18.8146C38.114 18.5099 38.1147 18.2046 38.1154 17.8992C38.1354 17.8126 38.0884 17.7136 38.1638 17.6367Z" fill="#CAD0FE"/>
<path d="M33.2571 20.4045C32.0641 20.6684 30.871 20.9322 29.678 21.1961C29.6766 20.9246 29.6752 20.6538 29.6738 20.3824C29.6759 19.2779 29.6773 18.1734 29.6794 17.0688C29.6911 17.0695 29.7022 17.0695 29.714 17.0702C29.869 17.3548 30.105 17.5293 30.4081 17.6436C31.4447 18.0349 32.4758 18.4407 33.509 18.8416C33.4557 18.9559 33.4018 19.0694 33.3499 19.1837C33.1713 19.5791 33.1935 19.9904 33.2571 20.4045Z" fill="#017372"/>
<path d="M29.8315 29.4001C29.3492 29.2775 28.9001 29.0642 28.4371 28.8883C27.7091 28.612 26.9825 28.3302 26.2559 28.0511C26.2572 27.689 26.2586 27.3268 26.26 26.9646C26.3894 27.1377 26.5458 27.2783 26.7763 27.1911C27.0122 27.1024 27.107 26.9092 27.0891 26.6572C27.0808 26.5464 27.0981 26.4328 27.0856 26.3227C27.0621 26.1226 27.1513 26.0782 27.3368 26.0796C28.1693 26.0886 29.0018 26.0838 29.8343 26.0845C29.8329 27.1904 29.8322 28.2956 29.8315 29.4001Z" fill="#4DC7FE"/>
<path d="M33.5075 18.8409C32.4743 18.4407 31.4432 18.0342 30.4066 17.6429C30.1028 17.528 29.8668 17.3535 29.7125 17.0695C29.7014 17.0522 29.6896 17.0349 29.6786 17.0169L29.6765 17.0135C29.6751 16.9587 29.6799 16.9013 29.6246 16.8653C29.637 16.6547 29.5734 16.4331 29.7187 16.2434C30.4356 16.9193 31.4045 17.0605 32.264 17.4289C33.156 17.8105 34.0743 18.1304 34.9815 18.4781C35.7165 18.7599 36.4424 18.7509 37.1538 18.404C37.4784 18.2454 37.7939 18.0681 38.1136 17.8998C38.1129 18.2052 38.1122 18.5099 38.1116 18.8153C37.9441 18.9032 37.7711 18.9822 37.6112 19.0819C36.8576 19.55 36.0493 19.683 35.1857 19.4891C34.6265 19.2723 34.0674 19.057 33.5075 18.8409Z" fill="#FEA990"/>
<path d="M27.7043 14.4687C28.3832 14.326 29.0621 14.1848 29.7403 14.04C30.4101 13.8967 31.0793 13.7492 31.7485 13.6038C31.7541 13.9001 31.9277 14.1287 32.0585 14.3745C31.5153 14.4936 30.9728 14.6141 30.4295 14.7325C28.5991 15.1307 26.768 15.5289 24.9376 15.9257C24.3446 16.0545 23.7584 16.2179 23.1543 16.2927C23.1598 16.0212 23.1543 15.7512 23.0996 15.4839C24.6345 15.1452 26.1694 14.8066 27.7043 14.4687Z" fill="#028C72"/>
<path d="M29.2617 25.2327C29.4105 25.1655 29.569 25.2258 29.7372 25.1912C29.6313 25.1011 29.5358 25.0139 29.4334 24.9343C28.9524 24.5596 28.9178 23.7162 29.3835 23.1933C29.7268 22.8083 30.6486 22.7176 31.0575 23.1414C31.1572 23.2446 31.2181 23.2134 31.3122 23.1317C31.6548 22.8333 32.3136 22.7682 32.6956 22.9835C33.1232 23.2238 33.2935 23.6538 33.2658 24.1829C33.2409 24.6545 32.9772 24.9301 32.6146 25.1815C32.7994 25.2369 32.9827 25.16 33.1488 25.2327C32.9412 25.2396 32.7343 25.2466 32.5267 25.2542C32.4783 25.241 32.4298 25.2161 32.3814 25.2161C31.58 25.214 30.7793 25.214 29.978 25.2161C29.9295 25.2161 29.8811 25.241 29.8327 25.2535C29.6417 25.2466 29.4514 25.2396 29.2617 25.2327ZM30.8686 24.1753C30.8513 24.0382 30.9094 23.8685 30.8389 23.7141C30.7441 23.5077 30.3621 23.3498 30.1226 23.4046C29.8036 23.4773 29.6472 23.6476 29.6257 23.9454C29.5911 24.4343 29.8257 24.6836 30.3212 24.685C30.8686 24.6863 30.8686 24.6863 30.8686 24.1753ZM31.9426 24.685C32.1087 24.6704 32.3025 24.7265 32.4741 24.6019C32.7412 24.4066 32.8312 23.9565 32.6485 23.6996C32.4575 23.4316 31.9648 23.3353 31.706 23.5209C31.5752 23.6151 31.4859 23.7383 31.4901 23.9115C31.4921 24.0146 31.4949 24.1185 31.4894 24.2217C31.4624 24.685 31.4617 24.685 31.9426 24.685Z" fill="#E7EEFE"/>
<path d="M29.6736 20.3826C29.675 20.654 29.6763 20.9248 29.6777 21.1962C28.0369 21.5577 26.3962 21.9199 24.7554 22.2807C24.7055 22.2917 24.6536 22.2952 24.6031 22.3028C24.5983 22.0037 24.4253 21.7724 24.291 21.5252C25.5422 21.2544 26.792 20.9809 28.0439 20.7136C28.5864 20.5972 29.1172 20.4262 29.6736 20.3826Z" fill="#028C72"/>
<path d="M29.2616 25.2327C29.4519 25.2396 29.6415 25.2465 29.8318 25.2534C29.8325 25.5304 29.8332 25.8081 29.8339 26.0851L29.8346 26.0844C29.0021 26.0837 28.1695 26.0886 27.337 26.0796C27.1516 26.0775 27.0623 26.1225 27.0858 26.3226C27.099 26.4327 27.0817 26.5463 27.0893 26.6571C27.108 26.9092 27.0125 27.1024 26.7765 27.191C26.5461 27.2776 26.3897 27.1377 26.2603 26.9646C26.1911 26.5636 26.189 26.1599 26.2561 25.7603C26.3122 25.4252 26.5225 25.2534 26.8637 25.2493C27.6623 25.2389 28.4616 25.2375 29.2616 25.2327Z" fill="#61E5FE"/>
<path d="M32.5249 25.2541C32.7326 25.2472 32.9395 25.2403 33.1471 25.2327C33.8848 25.2368 34.6225 25.241 35.3602 25.2458C35.911 25.2493 36.1055 25.4404 36.1069 25.9875C36.1075 26.3136 36.0992 26.6398 36.0951 26.966C35.9615 27.1169 35.8148 27.272 35.5948 27.1972C35.3574 27.1169 35.2633 26.9272 35.2654 26.671C35.2709 26.0844 35.264 26.0837 34.6674 26.0844C33.9519 26.0844 33.237 26.0858 32.5215 26.0858L32.5222 26.0865C32.5236 25.8088 32.5243 25.5318 32.5249 25.2541Z" fill="#61E5FE"/>
<path d="M33.5076 18.8411C34.0667 19.0571 34.6266 19.2725 35.1857 19.4885C35.2681 19.8999 35.2058 19.992 34.8044 20.0751C34.2875 20.1824 33.7719 20.2946 33.2557 20.4047C33.192 19.9906 33.1692 19.5793 33.3484 19.1838C33.4003 19.0689 33.455 18.9553 33.5076 18.8411Z" fill="#016E72"/>
<path d="M31.9062 33.0349C32.1158 32.9172 32.2923 32.7454 32.5207 32.6582C32.419 33.4504 31.9186 33.9628 31.1394 34.0584C30.8474 34.0944 30.5809 33.9642 30.3131 33.8832C28.8813 33.4504 27.4544 33.0037 26.0254 32.5612C25.9928 32.5508 25.9603 32.5384 25.9278 32.5273C25.7562 32.4671 25.5928 32.3909 25.66 32.1651C25.7292 31.9325 25.9202 31.9685 26.0869 32.0142C26.4433 32.1118 26.7956 32.2247 27.1485 32.3327C28.3568 32.7025 29.5644 33.073 30.7719 33.4441C31.1235 33.5522 31.4328 33.4954 31.6909 33.217C31.7553 33.1478 31.8342 33.0944 31.9062 33.0349Z" fill="#FEA990"/>
<path d="M23.1012 20.798C23.1026 20.4067 22.9649 20.0411 22.8881 19.6651C22.7462 18.9691 22.5808 18.278 22.4258 17.5856C22.7815 17.2185 23.0915 16.8252 23.1538 16.2927C23.7579 16.2179 24.3441 16.0538 24.9371 15.9257C26.7682 15.5289 28.5986 15.1307 30.429 14.7325C30.9723 14.6141 31.5148 14.4936 32.0581 14.3745C32.3875 14.8399 32.867 15.0455 33.4033 15.1536C33.4144 15.6141 33.5923 16.0427 33.6635 16.4921C32.7812 16.2228 31.8996 15.9499 31.0159 15.6854C30.4283 15.5095 29.9287 15.7304 29.7197 16.2442C29.5744 16.4347 29.638 16.6562 29.6256 16.8661C29.6277 16.9208 29.6145 16.981 29.6775 17.0143L29.6796 17.0177C29.6775 17.035 29.6775 17.0517 29.6789 17.069C29.6775 18.1735 29.6754 19.278 29.6733 20.3825C29.117 20.4261 28.5855 20.5972 28.0436 20.7128C26.7918 20.9801 25.542 21.2536 24.2908 21.5244C23.9531 21.1865 23.5918 20.8859 23.1012 20.798ZM27.036 17.929C27.0319 18.5917 27.58 19.1423 28.2492 19.1395C28.9523 19.1367 29.445 18.5481 29.4623 17.9415C29.4803 17.303 28.8879 16.6978 28.2789 16.7096C27.5827 16.7234 27.0229 17.2816 27.036 17.929Z" fill="#009F72"/>
<path d="M33.4053 15.1527C32.869 15.0454 32.3894 14.839 32.06 14.3737C31.9292 14.1279 31.7548 13.8993 31.75 13.603C32.3244 13.4714 32.8988 13.337 33.4738 13.2103C33.6655 13.1681 33.7942 13.2602 33.8358 13.4465C33.9541 13.979 34.0634 14.5136 34.1769 15.0475C33.9278 15.1458 33.6676 15.1583 33.4053 15.1527Z" fill="#016E72"/>
<path d="M33.4043 15.1529C33.6666 15.1584 33.9268 15.1459 34.1752 15.0476C34.2804 15.5053 34.3911 15.961 34.4894 16.4201C34.5364 16.6396 34.4202 16.7303 34.2008 16.6632C34.0216 16.6078 33.8437 16.5489 33.6652 16.4914C33.5925 16.042 33.4154 15.6141 33.4043 15.1529Z" fill="#028C72"/>
<path d="M29.832 29.3999C29.8327 28.2947 29.8334 27.1895 29.8341 26.085L29.8334 26.0857C30.7303 26.0857 31.6271 26.0857 32.524 26.0863L32.5233 26.0857C32.5233 27.1209 32.5233 28.1562 32.5212 29.1914C32.5212 29.2835 32.5676 29.4144 32.4915 29.4601C32.3974 29.5169 32.3102 29.3971 32.2264 29.3493C31.9275 29.179 31.6348 28.9975 31.3427 28.8161C31.2507 28.7586 31.1697 28.7164 31.0604 28.7856C30.7054 29.0114 30.3455 29.2309 29.9884 29.4525C29.9213 29.4795 29.8452 29.5342 29.832 29.3999Z" fill="#4D7ED2"/>
<path d="M29.6785 17.0683C29.6771 17.051 29.6778 17.0337 29.6792 17.0171C29.6903 17.0344 29.702 17.0524 29.7131 17.0697C29.702 17.0697 29.6903 17.069 29.6785 17.0683Z" fill="#028C72"/>
<path d="M29.6789 17.0134C29.6159 16.9802 29.629 16.9199 29.627 16.8652C29.6823 16.9012 29.6768 16.9587 29.6789 17.0134Z" fill="#028C72"/>
<path d="M32.5227 26.0857C31.6259 26.0857 30.729 26.085 29.8322 26.085C29.8315 25.808 29.8308 25.5303 29.8301 25.2533C29.8785 25.2402 29.927 25.2159 29.9754 25.2159C30.7768 25.2138 31.5774 25.2138 32.3788 25.2159C32.4272 25.2159 32.4757 25.2408 32.5241 25.254C32.5241 25.5317 32.5234 25.8087 32.5227 26.0857Z" fill="#4DC7FE"/>
<path d="M27.0373 17.9291C27.0242 17.2809 27.584 16.7228 28.2802 16.7096C28.8892 16.6979 29.4816 17.3031 29.4636 17.9416C29.4463 18.5475 28.9535 19.1368 28.2505 19.1396C27.5806 19.143 27.0332 18.5925 27.0373 17.9291Z" fill="#016E72"/>
<path d="M55.4087 24.6364C55.4087 25.5568 55.2425 26.3523 54.9102 27.0227C54.5778 27.6932 54.1218 28.2102 53.5423 28.5739C52.9627 28.9375 52.3008 29.1193 51.5565 29.1193C50.8121 29.1193 50.1502 28.9375 49.5707 28.5739C48.9911 28.2102 48.5352 27.6932 48.2028 27.0227C47.8704 26.3523 47.7042 25.5568 47.7042 24.6364C47.7042 23.7159 47.8704 22.9205 48.2028 22.25C48.5352 21.5795 48.9911 21.0625 49.5707 20.6989C50.1502 20.3352 50.8121 20.1534 51.5565 20.1534C52.3008 20.1534 52.9627 20.3352 53.5423 20.6989C54.1218 21.0625 54.5778 21.5795 54.9102 22.25C55.2425 22.9205 55.4087 23.7159 55.4087 24.6364ZM54.386 24.6364C54.386 23.8807 54.2596 23.2429 54.0067 22.723C53.7567 22.2031 53.4173 21.8097 52.9883 21.5426C52.5621 21.2756 52.0849 21.142 51.5565 21.142C51.0281 21.142 50.5494 21.2756 50.1204 21.5426C49.6942 21.8097 49.3548 22.2031 49.1019 22.723C48.8519 23.2429 48.7269 23.8807 48.7269 24.6364C48.7269 25.392 48.8519 26.0298 49.1019 26.5497C49.3548 27.0696 49.6942 27.4631 50.1204 27.7301C50.5494 27.9972 51.0281 28.1307 51.5565 28.1307C52.0849 28.1307 52.5621 27.9972 52.9883 27.7301C53.4173 27.4631 53.7567 27.0696 54.0067 26.5497C54.2596 26.0298 54.386 25.392 54.386 24.6364ZM58.055 25.0625V29H57.0494V22.4545H58.021V23.4773H58.1062C58.2596 23.1449 58.4925 22.8778 58.805 22.6761C59.1175 22.4716 59.521 22.3693 60.0153 22.3693C60.4585 22.3693 60.8462 22.4602 61.1786 22.642C61.511 22.821 61.7695 23.0938 61.9542 23.4602C62.1388 23.8239 62.2312 24.2841 62.2312 24.8409V29H61.2255V24.9091C61.2255 24.3949 61.092 23.9943 60.8249 23.7074C60.5579 23.4176 60.1914 23.2727 59.7255 23.2727C59.4045 23.2727 59.1175 23.3423 58.8647 23.4815C58.6147 23.6207 58.4173 23.8239 58.2724 24.0909C58.1275 24.358 58.055 24.6818 58.055 25.0625ZM65.0746 20.2727V29H64.0689V20.2727H65.0746ZM66.9165 29V22.4545H67.9222V29H66.9165ZM67.4279 21.3636C67.2319 21.3636 67.0629 21.2969 66.9208 21.1634C66.7816 21.0298 66.712 20.8693 66.712 20.6818C66.712 20.4943 66.7816 20.3338 66.9208 20.2003C67.0629 20.0668 67.2319 20 67.4279 20C67.6239 20 67.7915 20.0668 67.9308 20.2003C68.0728 20.3338 68.1438 20.4943 68.1438 20.6818C68.1438 20.8693 68.0728 21.0298 67.9308 21.1634C67.7915 21.2969 67.6239 21.3636 67.4279 21.3636ZM70.7699 25.0625V29H69.7642V22.4545H70.7358V23.4773H70.821C70.9744 23.1449 71.2074 22.8778 71.5199 22.6761C71.8324 22.4716 72.2358 22.3693 72.7301 22.3693C73.1733 22.3693 73.5611 22.4602 73.8935 22.642C74.2259 22.821 74.4844 23.0938 74.669 23.4602C74.8537 23.8239 74.946 24.2841 74.946 24.8409V29H73.9403V24.9091C73.9403 24.3949 73.8068 23.9943 73.5398 23.7074C73.2727 23.4176 72.9063 23.2727 72.4403 23.2727C72.1193 23.2727 71.8324 23.3423 71.5795 23.4815C71.3295 23.6207 71.1321 23.8239 70.9872 24.0909C70.8423 24.358 70.7699 24.6818 70.7699 25.0625ZM79.5281 29.1364C78.8974 29.1364 78.3533 28.9972 77.896 28.7188C77.4414 28.4375 77.0906 28.0455 76.8434 27.5426C76.5991 27.0369 76.4769 26.4489 76.4769 25.7784C76.4769 25.108 76.5991 24.517 76.8434 24.0057C77.0906 23.4915 77.4343 23.0909 77.8746 22.804C78.3178 22.5142 78.8349 22.3693 79.4258 22.3693C79.7667 22.3693 80.1033 22.4261 80.4357 22.5398C80.7681 22.6534 81.0707 22.8381 81.3434 23.0938C81.6161 23.3466 81.8335 23.6818 81.9954 24.0994C82.1573 24.517 82.2383 25.0312 82.2383 25.642V26.0682H77.1928V25.1989H81.2156C81.2156 24.8295 81.1417 24.5 80.994 24.2102C80.8491 23.9205 80.6417 23.6918 80.3718 23.5241C80.1048 23.3565 79.7894 23.2727 79.4258 23.2727C79.0252 23.2727 78.6786 23.3722 78.386 23.571C78.0962 23.767 77.8732 24.0227 77.717 24.3381C77.5607 24.6534 77.4826 24.9915 77.4826 25.3523V25.9318C77.4826 26.4261 77.5678 26.8452 77.7383 27.1889C77.9116 27.5298 78.1516 27.7898 78.4585 27.9688C78.7653 28.1449 79.1218 28.233 79.5281 28.233C79.7923 28.233 80.0309 28.196 80.244 28.1222C80.4599 28.0455 80.646 27.9318 80.8022 27.7812C80.9585 27.6278 81.0792 27.4375 81.1644 27.2102L82.136 27.483C82.0337 27.8125 81.8619 28.1023 81.6204 28.3523C81.3789 28.5994 81.0806 28.7926 80.7255 28.9318C80.3704 29.0682 79.9712 29.1364 79.5281 29.1364ZM87.2795 29V20.2727H90.2283C90.913 20.2727 91.4727 20.3963 91.9073 20.6435C92.3448 20.8878 92.6687 21.2188 92.8789 21.6364C93.0891 22.054 93.1942 22.5199 93.1942 23.0341C93.1942 23.5483 93.0891 24.0156 92.8789 24.4361C92.6715 24.8565 92.3505 25.1918 91.9158 25.4418C91.4812 25.6889 90.9244 25.8125 90.2454 25.8125H88.1317V24.875H90.2113C90.68 24.875 91.0565 24.794 91.3406 24.6321C91.6246 24.4702 91.8306 24.2514 91.9585 23.9759C92.0891 23.6974 92.1545 23.3835 92.1545 23.0341C92.1545 22.6847 92.0891 22.3722 91.9585 22.0966C91.8306 21.821 91.6232 21.6051 91.3363 21.4489C91.0494 21.2898 90.6687 21.2102 90.1942 21.2102H88.3363V29H87.2795ZM96.6864 29.1534C96.2717 29.1534 95.8952 29.0753 95.5572 28.919C95.2191 28.7599 94.9506 28.5312 94.7518 28.233C94.5529 27.9318 94.4535 27.5682 94.4535 27.142C94.4535 26.767 94.5273 26.4631 94.6751 26.2301C94.8228 25.9943 95.0202 25.8097 95.2674 25.6761C95.5146 25.5426 95.7873 25.4432 96.0856 25.3778C96.3867 25.3097 96.6893 25.2557 96.9933 25.2159C97.391 25.1648 97.7134 25.1264 97.9606 25.1009C98.2106 25.0724 98.3924 25.0256 98.506 24.9602C98.6225 24.8949 98.6808 24.7812 98.6808 24.6193V24.5852C98.6808 24.1648 98.5657 23.8381 98.3356 23.6051C98.1083 23.3722 97.7631 23.2557 97.3001 23.2557C96.82 23.2557 96.4435 23.3608 96.1708 23.571C95.8981 23.7812 95.7063 24.0057 95.5955 24.2443L94.641 23.9034C94.8114 23.5057 95.0387 23.196 95.3228 22.9744C95.6097 22.75 95.9222 22.5937 96.2603 22.5057C96.6012 22.4148 96.9364 22.3693 97.266 22.3693C97.4762 22.3693 97.7177 22.3949 97.9904 22.446C98.266 22.4943 98.5316 22.5952 98.7873 22.7486C99.0458 22.902 99.2603 23.1335 99.4308 23.4432C99.6012 23.7528 99.6864 24.1676 99.6864 24.6875V29H98.6808V28.1136H98.6296C98.5614 28.2557 98.4478 28.4077 98.2887 28.5696C98.1296 28.7315 97.918 28.8693 97.6538 28.983C97.3896 29.0966 97.0671 29.1534 96.6864 29.1534ZM96.8398 28.25C97.2376 28.25 97.5728 28.1719 97.8455 28.0156C98.1211 27.8594 98.3285 27.6577 98.4677 27.4105C98.6097 27.1634 98.6808 26.9034 98.6808 26.6307V25.7102C98.6381 25.7614 98.5444 25.8082 98.3995 25.8509C98.2575 25.8906 98.0927 25.9261 97.9052 25.9574C97.7205 25.9858 97.5401 26.0114 97.364 26.0341C97.1907 26.054 97.0501 26.071 96.9421 26.0852C96.6808 26.1193 96.4364 26.1747 96.2092 26.2514C95.9847 26.3253 95.8029 26.4375 95.6637 26.5881C95.5273 26.7358 95.4592 26.9375 95.4592 27.1932C95.4592 27.5426 95.5884 27.8068 95.8469 27.9858C96.1083 28.1619 96.4393 28.25 96.8398 28.25ZM101.935 31.4545C101.765 31.4545 101.613 31.4403 101.479 31.4119C101.346 31.3864 101.254 31.3608 101.202 31.3352L101.458 30.4489C101.702 30.5114 101.918 30.5341 102.106 30.517C102.293 30.5 102.46 30.4162 102.604 30.2656C102.752 30.1179 102.887 29.8778 103.009 29.5455L103.197 29.0341L100.776 22.4545H101.867L103.674 27.6705H103.742L105.549 22.4545H106.64L103.862 29.9545C103.737 30.2926 103.582 30.5724 103.397 30.794C103.212 31.0185 102.998 31.1847 102.754 31.2926C102.512 31.4006 102.239 31.4545 101.935 31.4545ZM107.967 29V22.4545H108.939V23.4773H109.024C109.161 23.1278 109.381 22.8565 109.685 22.6634C109.989 22.4673 110.354 22.3693 110.78 22.3693C111.212 22.3693 111.571 22.4673 111.858 22.6634C112.148 22.8565 112.374 23.1278 112.536 23.4773H112.604C112.771 23.1392 113.023 22.8707 113.358 22.6719C113.693 22.4702 114.095 22.3693 114.564 22.3693C115.149 22.3693 115.628 22.5526 116 22.919C116.372 23.2827 116.558 23.8494 116.558 24.6193V29H115.553V24.6193C115.553 24.1364 115.42 23.7912 115.156 23.5838C114.892 23.3764 114.581 23.2727 114.223 23.2727C113.763 23.2727 113.406 23.4119 113.153 23.6903C112.901 23.9659 112.774 24.3153 112.774 24.7386V29H111.751V24.517C111.751 24.1449 111.631 23.8452 111.389 23.6179C111.148 23.3878 110.837 23.2727 110.456 23.2727C110.195 23.2727 109.95 23.3423 109.723 23.4815C109.499 23.6207 109.317 23.8139 109.178 24.0611C109.041 24.3054 108.973 24.5881 108.973 24.9091V29H107.967ZM121.141 29.1364C120.511 29.1364 119.967 28.9972 119.509 28.7188C119.055 28.4375 118.704 28.0455 118.457 27.5426C118.212 27.0369 118.09 26.4489 118.09 25.7784C118.09 25.108 118.212 24.517 118.457 24.0057C118.704 23.4915 119.048 23.0909 119.488 22.804C119.931 22.5142 120.448 22.3693 121.039 22.3693C121.38 22.3693 121.717 22.4261 122.049 22.5398C122.381 22.6534 122.684 22.8381 122.957 23.0938C123.229 23.3466 123.447 23.6818 123.609 24.0994C123.771 24.517 123.852 25.0312 123.852 25.642V26.0682H118.806V25.1989H122.829C122.829 24.8295 122.755 24.5 122.607 24.2102C122.462 23.9205 122.255 23.6918 121.985 23.5241C121.718 23.3565 121.403 23.2727 121.039 23.2727C120.638 23.2727 120.292 23.3722 119.999 23.571C119.71 23.767 119.487 24.0227 119.33 24.3381C119.174 24.6534 119.096 24.9915 119.096 25.3523V25.9318C119.096 26.4261 119.181 26.8452 119.352 27.1889C119.525 27.5298 119.765 27.7898 120.072 27.9688C120.379 28.1449 120.735 28.233 121.141 28.233C121.406 28.233 121.644 28.196 121.857 28.1222C122.073 28.0455 122.259 27.9318 122.415 27.7812C122.572 27.6278 122.692 27.4375 122.778 27.2102L123.749 27.483C123.647 27.8125 123.475 28.1023 123.234 28.3523C122.992 28.5994 122.694 28.7926 122.339 28.9318C121.984 29.0682 121.585 29.1364 121.141 29.1364ZM126.387 25.0625V29H125.381V22.4545H126.353V23.4773H126.438C126.592 23.1449 126.825 22.8778 127.137 22.6761C127.45 22.4716 127.853 22.3693 128.347 22.3693C128.79 22.3693 129.178 22.4602 129.511 22.642C129.843 22.821 130.102 23.0938 130.286 23.4602C130.471 23.8239 130.563 24.2841 130.563 24.8409V29H129.558V24.9091C129.558 24.3949 129.424 23.9943 129.157 23.7074C128.89 23.4176 128.523 23.2727 128.058 23.2727C127.737 23.2727 127.45 23.3423 127.197 23.4815C126.947 23.6207 126.749 23.8239 126.604 24.0909C126.46 24.358 126.387 24.6818 126.387 25.0625ZM135.248 22.4545V23.3068H131.855V22.4545H135.248ZM132.844 20.8864H133.85V27.125C133.85 27.4091 133.891 27.6222 133.973 27.7642C134.059 27.9034 134.167 27.9972 134.297 28.0455C134.431 28.0909 134.571 28.1136 134.719 28.1136C134.83 28.1136 134.921 28.108 134.992 28.0966C135.063 28.0824 135.12 28.071 135.162 28.0625L135.367 28.9659C135.299 28.9915 135.203 29.017 135.081 29.0426C134.959 29.071 134.804 29.0852 134.617 29.0852C134.333 29.0852 134.054 29.0241 133.782 28.902C133.512 28.7798 133.287 28.5938 133.108 28.3438C132.932 28.0938 132.844 27.7784 132.844 27.3977V20.8864Z" fill="#878A99"/>
</svg>
