<svg width="20" height="20" viewBox="0 0 20 20" fill="none" xmlns="http://www.w3.org/2000/svg">
<g clip-path="url(#clip0_333_8627)">
<path d="M3.52888 8.01065C2.28681 8.22207 1.17828 7.26452 1.17828 6.03001C1.17828 4.80347 2.27325 3.84759 3.51118 4.04625C4.06499 4.27457 4.61481 5.34273 4.61481 6.02564C4.61485 6.78814 3.921 7.73179 3.52888 8.01065Z" fill="#FFB2B0"/>
<path d="M13.9328 13.8928C13.9328 12.7581 13.3987 11.7487 12.5684 11.1007C10.9092 9.69443 8.70837 9.61784 6.87274 11.1007V11.1011C6.04246 11.7488 5.50829 12.7585 5.50829 13.8928C5.50829 13.8928 5.41127 15.2969 6.77177 15.7301C6.87467 15.7411 6.97674 15.7619 7.07615 15.7929V15.7925H8.73335C8.73381 15.7927 8.73426 15.7928 8.73472 15.7929V15.7925H12.365V15.7929C12.4523 15.7651 12.5603 15.7417 12.6693 15.7301C14.0298 15.2968 13.9328 13.8928 13.9328 13.8928Z" fill="#FFDDCF"/>
<path d="M12.365 15.7931C12.3657 15.7929 12.3664 15.7927 12.3671 15.7925H12.365V15.7931Z" fill="#FFDDCF"/>
<path d="M7.16692 13.8928C7.16692 12.7585 7.70106 11.7488 8.53137 11.1011V11.1007C9.18003 10.5767 9.87475 10.2473 10.5753 10.1026C9.34737 9.84668 8.03608 10.161 6.8728 11.1007V11.1011C6.04252 11.7488 5.50835 12.7585 5.50835 13.8928C5.50835 13.8928 5.41133 15.2969 6.77183 15.7301C6.87473 15.7411 6.9768 15.7619 7.07621 15.7929V15.7925H8.73341C8.63446 15.7617 8.53285 15.741 8.4304 15.7301C7.0699 15.2968 7.16692 13.8928 7.16692 13.8928Z" fill="#FFC6BE"/>
<path d="M8.73553 15.7931V15.7925H8.7334C8.73411 15.7927 8.73482 15.7929 8.73553 15.7931Z" fill="#FFDDCF"/>
<path d="M8.29668 12.6633C8.13937 12.6633 8.0119 12.7908 8.0119 12.9481V14.0376C8.0119 14.1949 8.13937 14.3224 8.29668 14.3224C8.454 14.3224 8.58147 14.1949 8.58147 14.0376C8.58147 13.6632 8.58147 13.1856 8.58147 12.9481C8.58147 12.7908 8.45396 12.6633 8.29668 12.6633Z" fill="#FFC6BE"/>
<path d="M11.1445 12.6633C10.9872 12.6633 10.8597 12.7908 10.8597 12.9481V14.0376C10.8597 14.1949 10.9872 14.3224 11.1445 14.3224C11.3018 14.3224 11.4293 14.1949 11.4293 14.0376C11.4293 13.6632 11.4293 13.1856 11.4293 12.9481C11.4293 12.7908 11.3018 12.6633 11.1445 12.6633Z" fill="#FFC6BE"/>
<path d="M12.6014 14.5923C12.6014 15.1959 12.4139 15.5725 12.365 15.7925V15.7929L11.0755 18.9373C10.2954 19.6044 9.14597 19.6046 8.36559 18.9373L7.07617 15.7929V15.7925C7.00865 15.528 6.83972 15.166 6.83972 14.5923C6.83972 14.209 7.15074 13.8979 7.5341 13.8979H11.907C12.2903 13.8979 12.6014 14.209 12.6014 14.5923Z" fill="#D7F5F8"/>
<path d="M14.2254 16.5363C13.6744 15.5474 12.2999 15.4399 11.5996 16.3164L11.0305 17.0276C10.5571 17.6191 10.6051 18.4709 11.14 19.0059C11.6753 19.5412 12.5275 19.5881 13.1184 19.1155L13.8296 18.5464C14.4496 18.0505 14.5918 17.194 14.2254 16.5363Z" fill="#FFAEC3"/>
<path d="M11.8159 17.7247L12.385 17.0135C12.837 16.4478 13.5939 16.2778 14.2253 16.5363C13.6744 15.5474 12.2998 15.4399 11.5995 16.3164L11.0304 17.0276C10.3983 17.8175 10.727 18.9878 11.661 19.3436C11.3929 18.8335 11.4384 18.1964 11.8159 17.7247Z" fill="#FF91B3"/>
<path d="M8.41079 17.0275L7.84168 16.3163C7.25078 15.5767 6.14821 15.5188 5.48087 16.1855C4.81258 16.8538 4.87303 17.9556 5.61164 18.5463L6.32292 19.1154C6.91401 19.5883 7.76589 19.5412 8.3012 19.0058C8.83838 18.4687 8.88193 17.6163 8.41079 17.0275Z" fill="#FFAEC3"/>
<path d="M7.07569 18.3627L6.36442 17.7936C5.77218 17.3199 5.61647 16.5179 5.92225 15.874C4.86453 16.3766 4.69787 17.8155 5.61164 18.5464L6.32292 19.1155C7.08454 19.7247 8.21402 19.445 8.60801 18.5598C8.11367 18.7799 7.52075 18.7187 7.07569 18.3627Z" fill="#FF91B3"/>
<path d="M18.2629 6.02997C18.2629 7.26498 17.1537 8.22196 15.9123 8.01062C15.5332 7.73176 15.0621 6.7114 15.062 6.02997C15.0618 5.34558 15.5987 4.2876 15.9299 4.04622C17.1657 3.84793 18.2629 4.80112 18.2629 6.02997Z" fill="#FFC6BE"/>
<path d="M11.1427 0.130506C10.6848 0.0447676 10.2091 0 9.7206 0C6.11254 0 3.18799 2.4222 3.18799 6.02988C3.18799 8.62451 4.69581 10.3382 6.87249 11.1015C6.87249 11.1015 7.4078 10.8483 7.59504 10.8981C7.8371 10.9625 8.16437 11.4307 8.16437 11.4307C8.66266 11.5144 9.18571 11.5571 9.7206 11.5571C13.3429 11.5571 16.2532 9.62754 16.2532 6.02988C16.2532 2.91039 14.0665 0.677931 11.1427 0.130506Z" fill="#FFDDCF"/>
<path d="M6.03227 6.02988C6.03227 2.91069 8.21867 0.678007 11.1427 0.130506C10.6848 0.0447676 10.2091 0 9.7206 0C6.11254 0 3.18799 2.4222 3.18799 6.02988C3.18799 9.65188 6.12625 11.5571 9.7206 11.5571C10.2092 11.5571 10.685 11.5216 11.1428 11.4519C8.22691 11.0077 6.03227 9.16005 6.03227 6.02988Z" fill="#FFC6BE"/>
<path d="M9.72061 3.11362C9.56329 3.11362 9.43582 2.98615 9.43582 2.82884C9.43582 2.65208 9.34519 2.5687 9.15666 2.41161C8.95238 2.24139 8.67261 2.00821 8.67261 1.55681C8.67261 1.10541 8.95238 0.87227 9.15666 0.702008C9.34519 0.544884 9.43582 0.461537 9.43582 0.284782C9.43582 0.127469 9.56329 0 9.72061 0C9.87792 0 10.0054 0.127469 10.0054 0.284782C10.0054 0.736181 9.72562 0.969323 9.52134 1.13959C9.33281 1.29671 9.24217 1.38006 9.24217 1.55681C9.24217 1.73357 9.33281 1.81695 9.52134 1.97404C9.72562 2.14426 10.0054 2.37744 10.0054 2.82884C10.0054 2.98615 9.87788 3.11362 9.72061 3.11362Z" fill="#FF9C82"/>
<path d="M12.6968 6.04883C13.3032 6.04883 13.7949 6.44031 13.7949 6.92326C13.7949 7.40587 13.3032 7.79773 12.6968 7.79773C12.09 7.79773 11.5986 7.40587 11.5986 6.92326C11.5986 6.44027 12.09 6.04883 12.6968 6.04883Z" fill="#FD9FAA"/>
<path d="M6.74442 6.04883C7.35082 6.04883 7.84254 6.44031 7.84254 6.92326C7.84254 7.40587 7.35082 7.79773 6.74442 7.79773C6.13803 7.79773 5.6463 7.40587 5.6463 6.92326C5.6463 6.44027 6.13803 6.04883 6.74442 6.04883Z" fill="#FD9FAA"/>
<path d="M7.90709 6.25615C7.74978 6.25615 7.62231 6.12868 7.62231 5.97136C7.62231 5.84029 7.51565 5.73363 7.38461 5.73363C7.2533 5.73363 7.14653 5.84029 7.14653 5.97136C7.14653 6.12868 7.01902 6.25615 6.86175 6.25615C6.70443 6.25615 6.57697 6.12868 6.57697 5.97136C6.57697 5.52619 6.93928 5.16406 7.38461 5.16406C7.82974 5.16406 8.19187 5.52619 8.19187 5.97136C8.19187 6.12864 8.0644 6.25615 7.90709 6.25615Z" fill="#495560"/>
<path d="M12.5794 6.25615C12.4221 6.25615 12.2946 6.12868 12.2946 5.97136C12.2946 5.84029 12.1879 5.73363 12.0565 5.73363C11.9255 5.73363 11.8188 5.84029 11.8188 5.97136C11.8188 6.12868 11.6914 6.25615 11.534 6.25615C11.3767 6.25615 11.2493 6.12868 11.2493 5.97136C11.2493 5.52619 11.6114 5.16406 12.0565 5.16406C12.5019 5.16406 12.8642 5.52619 12.8642 5.97136C12.8642 6.12864 12.7367 6.25615 12.5794 6.25615Z" fill="#495560"/>
<path d="M8.95136 6.76907C8.84811 6.65041 8.86061 6.47054 8.97927 6.3673C9.09789 6.26413 9.27776 6.27659 9.38104 6.39521C9.56087 6.60188 9.88035 6.60169 10.0601 6.39521C10.1633 6.27659 10.3432 6.26406 10.4618 6.3673C10.5805 6.47054 10.593 6.65041 10.4898 6.76907C10.0829 7.2368 9.3578 7.23623 8.95136 6.76907Z" fill="#495560"/>
</g>
<defs>
<clipPath id="clip0_333_8627">
<rect width="19.4411" height="19.4411" fill="white"/>
</clipPath>
</defs>
</svg>
