<svg width="19" height="19" viewBox="0 0 19 19" fill="none" xmlns="http://www.w3.org/2000/svg">
<path d="M6.43536 5.55772V6.72779H7.60543V5.55772C7.60543 4.62675 7.97526 3.73392 8.63355 3.07563C9.29184 2.41733 10.1847 2.04751 11.1156 2.04751C12.0466 2.04751 12.9394 2.41733 13.5977 3.07563C14.256 3.73392 14.6258 4.62675 14.6258 5.55772V6.72779H15.7959V5.55772C15.7959 4.31643 15.3028 3.12598 14.4251 2.24826C13.5474 1.37054 12.3569 0.877441 11.1156 0.877441C9.87435 0.877441 8.68391 1.37054 7.80618 2.24826C6.92846 3.12598 6.43536 4.31643 6.43536 5.55772Z" fill="#C7312E"/>
<path d="M15.6201 17.8434H6.61118C6.32207 17.8434 6.04319 17.7364 5.82832 17.543C5.61346 17.3495 5.47781 17.0834 5.44755 16.7959L4.38776 6.72778H17.8435L16.7838 16.7959C16.7535 17.0834 16.6178 17.3495 16.403 17.543C16.1881 17.7364 15.9092 17.8434 15.6201 17.8434Z" fill="#A82A27"/>
<path d="M10.1446 17.8435H2.14109C1.97987 17.8435 1.82039 17.8102 1.67266 17.7456C1.52492 17.6811 1.39212 17.5867 1.28258 17.4684C1.17304 17.3501 1.08912 17.2105 1.0361 17.0582C0.983079 16.906 0.962091 16.7444 0.974454 16.5837L1.37948 11.3184C1.40209 11.0245 1.53481 10.7499 1.7511 10.5496C1.96739 10.3493 2.25132 10.238 2.54611 10.238H9.73962C10.0344 10.238 10.3183 10.3493 10.5346 10.5496C10.7509 10.7499 10.8836 11.0245 10.9063 11.3184L11.3113 16.5837C11.3236 16.7444 11.3027 16.906 11.2496 17.0582C11.1966 17.2105 11.1127 17.3501 11.0032 17.4684C10.8936 17.5867 10.7608 17.6811 10.6131 17.7456C10.4653 17.8102 10.3059 17.8435 10.1446 17.8435Z" fill="#EB423F"/>
<path d="M10.1445 17.8436H2.14122C1.98 17.8436 1.82052 17.8103 1.67278 17.7458C1.52504 17.6812 1.39223 17.5869 1.28267 17.4686C1.17312 17.3503 1.08919 17.2107 1.03615 17.0584C0.983108 16.9062 0.9621 16.7446 0.974443 16.5839L1.05744 15.5034H11.2283L11.3113 16.5839C11.3236 16.7446 11.3026 16.9062 11.2496 17.0584C11.1965 17.2107 11.1126 17.3503 11.003 17.4686C10.8935 17.5869 10.7607 17.6812 10.6129 17.7458C10.4652 17.8103 10.3057 17.8436 10.1445 17.8436Z" fill="#C7312E"/>
<path d="M5.26532 10.238H7.02042V11.4081H5.26532V10.238Z" fill="#F7B030"/>
<path d="M10.2381 7.89795H11.9932V9.06802H10.2381V7.89795Z" fill="#F7B030"/>
<path d="M3.51022 10.2382H0.877563V9.06812H2.04763L3.51022 9.65315V10.2382Z" fill="#F7B030"/>
<path d="M7.89799 9.06799H6.14288V6.72786L7.02044 6.14282L7.89799 6.72786V9.06799Z" fill="#EB423F"/>
<path d="M13.1633 11.9933L14.6259 10.8232H16.381L17.8435 11.9933V17.8437H13.1633V11.9933Z" fill="#499154"/>
<path d="M15.5034 14.626C15.4456 14.626 15.389 14.6088 15.3409 14.5767C15.2928 14.5445 15.2553 14.4988 15.2332 14.4454C15.211 14.3919 15.2052 14.3331 15.2165 14.2764C15.2278 14.2196 15.2557 14.1675 15.2966 14.1266C15.3375 14.0857 15.3896 14.0578 15.4463 14.0465C15.5031 14.0353 15.5619 14.041 15.6153 14.0632C15.6688 14.0853 15.7145 14.1228 15.7466 14.1709C15.7788 14.219 15.7959 14.2756 15.7959 14.3334C15.7959 14.411 15.8267 14.4854 15.8816 14.5403C15.9365 14.5951 16.0109 14.626 16.0884 14.626C16.166 14.626 16.2404 14.5951 16.2953 14.5403C16.3501 14.4854 16.381 14.411 16.381 14.3334C16.3807 14.152 16.3244 13.9751 16.2196 13.827C16.1149 13.6789 15.9669 13.5669 15.7959 13.5062V13.1634C15.7959 13.0858 15.7651 13.0114 15.7102 12.9565C15.6554 12.9017 15.581 12.8708 15.5034 12.8708C15.4258 12.8708 15.3514 12.9017 15.2966 12.9565C15.2417 13.0114 15.2109 13.0858 15.2109 13.1634V13.5062C15.0158 13.5753 14.8514 13.7111 14.7467 13.8896C14.6421 14.0681 14.6038 14.2779 14.6388 14.4818C14.6738 14.6858 14.7798 14.8708 14.938 15.0043C15.0962 15.1377 15.2965 15.2109 15.5034 15.211C15.5613 15.211 15.6178 15.2281 15.6659 15.2603C15.714 15.2924 15.7515 15.3381 15.7737 15.3916C15.7958 15.445 15.8016 15.5038 15.7903 15.5606C15.779 15.6173 15.7512 15.6694 15.7102 15.7103C15.6693 15.7513 15.6172 15.7791 15.5605 15.7904C15.5037 15.8017 15.4449 15.7959 15.3915 15.7738C15.338 15.7516 15.2923 15.7141 15.2602 15.666C15.228 15.6179 15.2109 15.5614 15.2109 15.5035C15.2109 15.4259 15.1801 15.3515 15.1252 15.2967C15.0704 15.2418 14.996 15.211 14.9184 15.211C14.8408 15.211 14.7664 15.2418 14.7115 15.2967C14.6567 15.3515 14.6259 15.4259 14.6259 15.5035C14.6261 15.6849 14.6824 15.8618 14.7872 16.0099C14.8919 16.158 15.0399 16.2701 15.2109 16.3307V16.6736C15.2109 16.7512 15.2417 16.8256 15.2966 16.8804C15.3514 16.9353 15.4258 16.9661 15.5034 16.9661C15.581 16.9661 15.6554 16.9353 15.7102 16.8804C15.7651 16.8256 15.7959 16.7512 15.7959 16.6736V16.3307C15.991 16.2617 16.1554 16.1259 16.2601 15.9474C16.3648 15.7688 16.403 15.5591 16.368 15.3551C16.333 15.1511 16.227 14.9661 16.0688 14.8327C15.9106 14.6993 15.7104 14.626 15.5034 14.626Z" fill="#B1BD70"/>
<path d="M15.5034 12.2857C15.6649 12.2857 15.7959 12.1548 15.7959 11.9932C15.7959 11.8316 15.6649 11.7007 15.5034 11.7007C15.3418 11.7007 15.2109 11.8316 15.2109 11.9932C15.2109 12.1548 15.3418 12.2857 15.5034 12.2857Z" fill="#E9EEF2"/>
<path d="M16.0885 9.06799H14.3334V6.72786L15.2109 6.14282L16.0885 6.72786V9.06799Z" fill="#EB423F"/>
</svg>
