<svg width="19" height="19" viewBox="0 0 19 19" fill="none" xmlns="http://www.w3.org/2000/svg">
<g clip-path="url(#clip0_333_8550)">
<path d="M18.136 18.721H0.585029C0.282128 18.721 0.0365601 18.4754 0.0365601 18.1725V11.5543C0.0365601 10.6471 0.774689 9.90894 1.68197 9.90894H5.75965C6.0944 9.90894 6.35082 10.2065 6.3023 10.5371C6.07239 12.1036 6.06975 13.1557 6.06975 13.1997C6.06975 15.0115 7.54762 16.4906 9.3602 16.4906C11.1771 16.4906 12.6648 14.9648 12.6511 13.1237C12.645 12.3065 12.5453 11.4998 12.4156 10.5301C12.3716 10.2013 12.6278 9.90894 12.9593 9.90894H17.0391C17.9464 9.90894 18.6845 10.6471 18.6845 11.5543V18.1725C18.6845 18.4754 18.439 18.721 18.136 18.721Z" fill="#F5BAB1"/>
<path d="M18.6845 11.5543V18.1725C18.6845 18.4753 18.4388 18.721 18.1361 18.721H9.36053V16.4906C11.1774 16.4902 12.6649 14.9647 12.651 13.1237C12.6451 12.3065 12.5453 11.4999 12.4155 10.5302C12.3716 10.2015 12.6276 9.90894 12.9592 9.90894H17.0391C17.9463 9.90894 18.6845 10.6472 18.6845 11.5543Z" fill="#F4A69F"/>
<path d="M9.36057 15.3937C8.15086 15.3937 7.16669 14.4096 7.16669 13.1999C7.16669 13.1177 7.17385 11.1577 7.79904 8.5691C8.55212 5.45101 9.96227 2.42785 12.2665 0.157768C12.4707 -0.0434107 12.7954 -0.0534294 13.0115 0.134842C13.2278 0.32304 13.2625 0.646016 13.0914 0.875971C10.4849 4.37766 10.9223 7.64343 11.3082 10.5248C11.4348 11.4702 11.5544 12.3632 11.5544 13.1999C11.5544 14.4096 10.5703 15.3937 9.36057 15.3937Z" fill="#214C80"/>
<path d="M13.0115 0.13495C12.7954 -0.053358 12.4707 -0.0434856 12.2663 0.15762C11.0663 1.34012 10.109 2.72665 9.36053 4.22434V15.3937C10.5701 15.3937 11.5544 14.4094 11.5544 13.1999C11.5544 12.3633 11.4348 11.4704 11.3083 10.5248C10.9222 7.6435 10.4849 4.37755 13.0912 0.876116C13.2623 0.646124 13.2276 0.322892 13.0115 0.13495Z" fill="#193B66"/>
<path d="M13.7483 8.8122C12.841 8.8122 12.1029 8.07407 12.1029 7.1668C12.1029 6.1605 12.7707 5.30105 13.245 4.20637C13.3321 4.0056 13.53 3.87598 13.7483 3.87598C13.9709 3.87598 14.1736 4.01097 14.2576 4.22074C14.693 5.30916 15.3937 6.15414 15.3937 7.1668C15.3937 8.07407 14.6556 8.8122 13.7483 8.8122Z" fill="#FEBD50"/>
<path d="M14.2576 4.22078C14.1735 4.0109 13.971 3.87598 13.7483 3.87598V8.8122C14.6555 8.8122 15.3937 8.07397 15.3937 7.1668C15.3937 6.15395 14.6928 5.30931 14.2576 4.22078Z" fill="#FEA635"/>
<path d="M4.97281 7.71524C3.7631 7.71524 2.77893 6.77315 2.77893 5.61522C2.77893 4.22957 3.95196 3.08382 4.45008 1.516C4.52182 1.29025 4.73035 1.13605 4.96722 1.13364C5.19319 1.12929 5.41316 1.27365 5.49203 1.50532C6.02869 3.08162 7.16669 4.23399 7.16669 5.61522C7.16669 6.77315 6.18252 7.71524 4.97281 7.71524Z" fill="#FEBD50"/>
<path d="M5.492 1.50542C5.41375 1.27543 5.19692 1.13173 4.97278 1.13356V7.7152C6.18234 7.7152 7.16666 6.77329 7.16666 5.61529C7.16666 4.23388 6.02877 3.08173 5.492 1.50542Z" fill="#FEA635"/>
<path d="M2.77894 13.2C3.08185 13.2 3.32741 12.9544 3.32741 12.6515C3.32741 12.3486 3.08185 12.103 2.77894 12.103C2.47603 12.103 2.23047 12.3486 2.23047 12.6515C2.23047 12.9544 2.47603 13.2 2.77894 13.2Z" fill="#F4A69F"/>
<path d="M3.72962 15.3938C4.03253 15.3938 4.27809 15.1483 4.27809 14.8453C4.27809 14.5424 4.03253 14.2969 3.72962 14.2969C3.42671 14.2969 3.18115 14.5424 3.18115 14.8453C3.18115 15.1483 3.42671 15.3938 3.72962 15.3938Z" fill="#F4A69F"/>
<path d="M2.77894 17.5877C3.08185 17.5877 3.32741 17.3421 3.32741 17.0392C3.32741 16.7363 3.08185 16.4907 2.77894 16.4907C2.47603 16.4907 2.23047 16.7363 2.23047 17.0392C2.23047 17.3421 2.47603 17.5877 2.77894 17.5877Z" fill="#F4A69F"/>
<path d="M15.9421 18.136C16.2451 18.136 16.4906 17.8904 16.4906 17.5875C16.4906 17.2846 16.2451 17.0391 15.9421 17.0391C15.6392 17.0391 15.3937 17.2846 15.3937 17.5875C15.3937 17.8904 15.6392 18.136 15.9421 18.136Z" fill="#EF948F"/>
<path d="M14.9915 15.9422C15.2944 15.9422 15.5399 15.6966 15.5399 15.3937C15.5399 15.0908 15.2944 14.8452 14.9915 14.8452C14.6886 14.8452 14.443 15.0908 14.443 15.3937C14.443 15.6966 14.6886 15.9422 14.9915 15.9422Z" fill="#EF948F"/>
<path d="M15.9421 13.2C16.2451 13.2 16.4906 12.9544 16.4906 12.6515C16.4906 12.3486 16.2451 12.103 15.9421 12.103C15.6392 12.103 15.3937 12.3486 15.3937 12.6515C15.3937 12.9544 15.6392 13.2 15.9421 13.2Z" fill="#EF948F"/>
</g>
<defs>
<clipPath id="clip0_333_8550">
<rect width="18.7211" height="18.7211" fill="white"/>
</clipPath>
</defs>
</svg>
