<svg width="21" height="21" viewBox="0 0 21 21" fill="none" xmlns="http://www.w3.org/2000/svg">
<g clip-path="url(#clip0_333_8591)">
<path d="M10.0806 20.1612C15.648 20.1612 20.1612 15.648 20.1612 10.0806C20.1612 4.51324 15.648 0 10.0806 0C4.51324 0 0 4.51324 0 10.0806C0 15.648 4.51324 20.1612 10.0806 20.1612Z" fill="#FFCE00"/>
<path d="M11.2824 20.0902C16.2832 19.4961 20.1612 15.2412 20.1612 10.0805C20.1612 10.0742 20.1612 10.0679 20.1611 10.0616L17.074 6.97455L17.0011 7.09134L12.3788 2.46899L7.90289 16.7107L11.2824 20.0902Z" fill="#FFA300"/>
<path d="M12.3788 2.46899C12.3788 2.46899 12.7851 6.4956 17.0741 6.97455C17.0741 6.97455 17.3706 14.2835 10.0983 18.1646H10.0645C2.43441 13.8363 3.08867 6.97455 3.08867 6.97455C7.3776 6.49556 7.78394 2.46899 7.78394 2.46899H12.3788Z" fill="#4A7AFF"/>
<path d="M17.074 6.97455C12.7851 6.49556 12.3787 2.46899 12.3787 2.46899H10.0806V18.1646H10.0982C17.3705 14.2835 17.074 6.97455 17.074 6.97455Z" fill="#0053BF"/>
<path d="M10.0813 13.2104C10.9458 13.2104 11.6465 12.5097 11.6465 11.6452C11.6465 10.7808 10.9458 10.0801 10.0813 10.0801C9.21693 10.0801 8.51617 10.7808 8.51617 11.6452C8.51617 12.5097 9.21693 13.2104 10.0813 13.2104Z" fill="white"/>
<path d="M10.0813 10.0801C10.0811 10.0801 10.0808 10.0801 10.0806 10.0801V13.2104H10.0813C10.9457 13.2104 11.6465 12.5096 11.6465 11.6452C11.6465 10.7808 10.9457 10.0801 10.0813 10.0801Z" fill="#E9EDF5"/>
<path d="M14.7369 7.21787C15.266 7.21787 15.6949 6.78899 15.6949 6.25993C15.6949 5.73088 15.266 5.302 14.7369 5.302C14.2079 5.302 13.779 5.73088 13.779 6.25993C13.779 6.78899 14.2079 7.21787 14.7369 7.21787Z" fill="#E9EDF5"/>
<path d="M5.42571 7.21787C5.95476 7.21787 6.38364 6.78899 6.38364 6.25993C6.38364 5.73088 5.95476 5.302 5.42571 5.302C4.89665 5.302 4.46777 5.73088 4.46777 6.25993C4.46777 6.78899 4.89665 7.21787 5.42571 7.21787Z" fill="white"/>
<path d="M13.8824 9.14083C14.4806 9.14083 14.9655 8.65591 14.9655 8.05772C14.9655 7.45954 14.4806 6.97461 13.8824 6.97461C13.2842 6.97461 12.7993 7.45954 12.7993 8.05772C12.7993 8.65591 13.2842 9.14083 13.8824 9.14083Z" fill="#E9EDF5"/>
<path d="M6.2802 9.14083C6.87838 9.14083 7.36331 8.65591 7.36331 8.05772C7.36331 7.45954 6.87838 6.97461 6.2802 6.97461C5.68201 6.97461 5.19708 7.45954 5.19708 8.05772C5.19708 8.65591 5.68201 9.14083 6.2802 9.14083Z" fill="white"/>
<path d="M12.3396 11.2427C13.0774 11.2427 13.6756 10.6446 13.6756 9.90676C13.6756 9.16893 13.0774 8.5708 12.3396 8.5708C11.6018 8.5708 11.0037 9.16893 11.0037 9.90676C11.0037 10.6446 11.6018 11.2427 12.3396 11.2427Z" fill="#E9EDF5"/>
<path d="M7.82301 11.2427C8.56084 11.2427 9.15897 10.6446 9.15897 9.90676C9.15897 9.16893 8.56084 8.5708 7.82301 8.5708C7.08519 8.5708 6.48706 9.16893 6.48706 9.90676C6.48706 10.6446 7.08519 11.2427 7.82301 11.2427Z" fill="white"/>
</g>
<defs>
<clipPath id="clip0_333_8591">
<rect width="20.1612" height="20.1612" fill="white"/>
</clipPath>
</defs>
</svg>
