<svg width="19" height="18" viewBox="0 0 19 18" fill="none" xmlns="http://www.w3.org/2000/svg">
<g clip-path="url(#clip0_333_8387)">
<path d="M9.80172 18.001C14.559 18.001 18.4155 14.1445 18.4155 9.38723C18.4155 4.62996 14.559 0.773438 9.80172 0.773438C5.04445 0.773438 1.18793 4.62996 1.18793 9.38723C1.18793 14.1445 5.04445 18.001 9.80172 18.001Z" fill="#F3D5D5"/>
<path d="M13.3527 2.30641V0.513338C13.3527 0.319967 13.2096 0.229259 13.0346 0.31174L12.2542 0.679813C12.0793 0.762294 11.9362 0.988011 11.9362 1.18138V2.30645L13.3527 2.30641Z" fill="#AA3584"/>
<path d="M12.6644 2.30641V1.54692C12.6644 1.35355 12.8075 1.12784 12.9824 1.04535L13.3527 0.870723V0.513338C13.3527 0.319967 13.2096 0.229259 13.0346 0.31174L12.2542 0.679813C12.0793 0.762294 11.9362 0.988011 11.9362 1.18138V2.30645L12.6644 2.30641Z" fill="#832968"/>
<path d="M12.7901 7.75241C12.7901 8.34212 12.6012 8.88827 12.2815 9.33471H13.3527V5.40039H11.9362V5.77419C12.4614 6.27119 12.7901 6.9739 12.7901 7.75241Z" fill="#2B41AD"/>
<path d="M12.6644 9.33472V8.5708C12.5772 8.84704 12.4467 9.10405 12.2815 9.33472H12.6644Z" fill="#232E7A"/>
<path d="M12.6644 6.93403V5.40039H11.9362V5.77419C12.2691 6.08918 12.5232 6.48664 12.6644 6.93403Z" fill="#232E7A"/>
<path d="M11.9362 2.27124H13.3527V5.43549H11.9362V2.27124Z" fill="#8A94DB"/>
<path d="M11.9362 2.27124H12.6644V4.31042H11.9362V2.27124Z" fill="#717ED4"/>
<path d="M11.9362 4.31055H13.3527V5.43561H11.9362V4.31055Z" fill="#717ED4"/>
<path d="M11.9362 4.31055H12.6644V5.43561H11.9362V4.31055Z" fill="#5766CC"/>
<path d="M12.3261 9.33466C12.6403 8.88657 12.8253 8.34123 12.8253 7.75236C12.8253 6.22807 11.5896 4.99243 10.0653 4.99243C8.54109 4.99243 7.30542 6.22807 7.30542 7.75236C7.30542 8.34123 7.49042 8.88657 7.80463 9.33466H12.3261Z" fill="#E279B3"/>
<path d="M8.87369 9.33466C8.55952 8.88671 8.37504 8.34112 8.37504 7.75236C8.37504 6.41114 9.33191 5.29377 10.6002 5.04468C10.4271 5.01068 10.2484 4.99243 10.0653 4.99243C8.54109 4.99243 7.30542 6.22807 7.30542 7.75236C7.30542 8.34123 7.49042 8.88657 7.80463 9.33466H8.87369Z" fill="#DE5CA3"/>
<path d="M10.823 7.58304H9.30775C9.16213 7.58304 9.04407 7.46501 9.04407 7.31935C9.04407 7.17369 9.16213 7.05566 9.30775 7.05566H10.823C10.9686 7.05566 11.0867 7.17369 11.0867 7.31935C11.0867 7.46501 10.9686 7.58304 10.823 7.58304Z" fill="#DB387E"/>
<path d="M10.504 8.44901H9.62679C9.48116 8.44901 9.3631 8.33098 9.3631 8.18532C9.3631 8.03966 9.48116 7.92163 9.62679 7.92163H10.504C10.6496 7.92163 10.7677 8.03966 10.7677 8.18532C10.7677 8.33094 10.6496 8.44901 10.504 8.44901Z" fill="#DB387E"/>
<path d="M13.8801 8.01611H15.9896V9.33469H13.8801V8.01611Z" fill="#B3094E"/>
<path d="M13.8801 8.01611H14.5981V9.33469H13.8801V8.01611Z" fill="#84004F"/>
<path d="M13.8801 7.31299H15.9896V8.05131H13.8801V7.31299Z" fill="#E09380"/>
<path d="M13.88 7.31299H14.5981V8.05131H13.88V7.31299Z" fill="#D76718"/>
<path d="M18.5536 11.8398L17.5841 10.8703C17.5333 10.8196 17.4706 10.7877 17.4048 10.7747C17.4027 10.9565 17.3328 11.1377 17.1944 11.2762C17.0603 11.4103 16.8824 11.4848 16.693 11.4869C16.7061 11.5526 16.7379 11.6152 16.7886 11.6659L17.7581 12.6354C17.8949 12.7722 18.1186 12.7722 18.2554 12.6354L18.5537 12.3371C18.6904 12.2003 18.6904 11.9766 18.5536 11.8398Z" fill="#5766CC"/>
<path d="M18.13 12.2744L17.1614 11.3059C17.0317 11.4208 16.8675 11.4848 16.693 11.4867C16.7061 11.5524 16.7379 11.615 16.7886 11.6657L17.7581 12.6353C17.8949 12.772 18.1186 12.772 18.2554 12.6353L18.5537 12.337C18.5583 12.3324 18.5624 12.3274 18.5667 12.3227C18.4308 12.4084 18.248 12.3925 18.13 12.2744Z" fill="#3D4EC4"/>
<path d="M7.15467 8.56213L6.67255 7.69653C6.66815 7.69956 6.66411 7.70293 6.65936 7.70557L4.41401 8.95612C4.40934 8.95872 4.40448 8.96086 4.3996 8.96297L4.60661 9.33463H6.67765L6.98331 9.16439C7.19602 9.04591 7.27319 8.77494 7.15467 8.56213Z" fill="#5766CC"/>
<path d="M4.41395 8.95611C4.40927 8.95872 4.40442 8.96086 4.39954 8.96297L4.60655 9.33463H5.52478L5.10087 8.57349L4.41395 8.95611Z" fill="#2B41AD"/>
<path d="M4.4311 8.98689C4.34021 9.03748 4.22595 9.0129 4.16386 8.92947L1.264 5.02869C1.22839 4.98077 1.21517 4.91984 1.22772 4.86151C1.24023 4.80315 1.27736 4.75301 1.3295 4.72394L4.68508 2.85506C4.73726 2.82599 4.79942 2.82085 4.85564 2.84093C4.91185 2.861 4.95672 2.90432 4.97869 2.95983L6.76835 7.47891C6.80661 7.57563 6.76737 7.68571 6.67649 7.73634L4.4311 8.98689Z" fill="white"/>
<path d="M4.89135 8.55586L3.96205 7.30577C3.76572 7.21299 3.59534 7.06047 3.48164 6.85631C3.41685 6.73993 3.37606 6.61674 3.35736 6.49235L1.93292 4.57622C1.8972 4.52816 1.8837 4.46727 1.89541 4.40869L1.3295 4.72389C1.27736 4.75296 1.24023 4.8031 1.22771 4.86146C1.21516 4.91979 1.22842 4.98072 1.264 5.02864L4.16385 8.92942C4.22591 9.01285 4.34021 9.03743 4.43109 8.98683L5.05234 8.64084C4.99043 8.63824 4.93062 8.60863 4.89135 8.55586Z" fill="#E6F7FE"/>
<path d="M4.42327 7.40978C5.01853 7.40978 5.50109 6.92722 5.50109 6.33196C5.50109 5.7367 5.01853 5.25415 4.42327 5.25415C3.82801 5.25415 3.34546 5.7367 3.34546 6.33196C3.34546 6.92722 3.82801 7.40978 4.42327 7.40978Z" fill="#5766CC"/>
<path d="M5.30152 6.90665C4.78146 7.19628 4.12509 7.00952 3.83546 6.48946C3.64335 6.14449 3.66104 5.73971 3.84632 5.42163C3.36659 5.72512 3.20208 6.35417 3.48169 6.85634C3.77133 7.3764 4.42773 7.56316 4.94776 7.27353C5.12285 7.176 5.25997 7.0368 5.35405 6.87529C5.33689 6.88612 5.31945 6.89666 5.30152 6.90665Z" fill="#5766CC"/>
<path d="M4.68508 2.85507L1.3295 4.72395C1.27736 4.75302 1.24023 4.80316 1.22771 4.86152C1.21516 4.91985 1.22842 4.98078 1.264 5.0287L1.50212 5.34903L5.12561 3.33094L4.97861 2.95981C4.95664 2.90429 4.91181 2.86098 4.85556 2.8409C4.79938 2.82086 4.73725 2.82599 4.68508 2.85507Z" fill="#EDF6FF"/>
<path d="M17.2909 10.315C17.1465 10.121 16.9268 10.0169 16.7024 10.0115L16.3425 11.4398C16.5904 11.5655 16.8982 11.5501 17.1363 11.3727C17.4711 11.1233 17.5403 10.6498 17.2909 10.315Z" fill="#717ED4"/>
<path d="M16.4848 11.0266C16.4747 11.0131 16.466 10.9992 16.457 10.9854L16.3426 11.4396C16.5905 11.5653 16.8983 11.5499 17.1364 11.3725C17.1571 11.357 17.1768 11.3408 17.1955 11.3236C16.9311 11.3603 16.6554 11.2557 16.4848 11.0266Z" fill="#5766CC"/>
<path d="M16.667 9.49522C16.5707 9.37174 16.423 9.29956 16.2665 9.29956H3.33698C3.18046 9.29956 3.03272 9.37178 2.93649 9.49522C2.84026 9.61866 2.80637 9.77961 2.84462 9.93139L4.16907 15.1884H15.4344L16.7588 9.93143C16.7971 9.77961 16.7632 9.61866 16.667 9.49522Z" fill="#DB387E"/>
<path d="M5.60033 15.1389L4.31213 9.93139C4.27388 9.77961 4.30777 9.61862 4.404 9.49522C4.50023 9.37174 4.64796 9.29956 4.80449 9.29956H3.33698C3.18046 9.29956 3.03272 9.37178 2.93649 9.49522C2.84026 9.61866 2.80637 9.77961 2.84462 9.93139L4.15656 15.1389H5.60033Z" fill="#B3094E"/>
<path d="M15.2483 15.9267L15.4468 15.1389H4.15656L4.35502 15.9267H15.2483Z" fill="white"/>
<path d="M5.6003 15.1389H4.15656L4.35502 15.9267H5.79518L5.6003 15.1389Z" fill="#EDF6FF"/>
<path d="M15.2608 15.8772H4.34253L4.3972 16.0943C5.87515 17.2867 7.75482 18.001 9.80167 18.001C11.8485 18.001 13.7282 17.2867 15.2061 16.0943L15.2608 15.8772Z" fill="#B3094E"/>
<path d="M9.8017 13.7756C10.9765 13.7756 11.9288 13.1804 11.9288 12.4461C11.9288 11.7119 10.9765 11.1167 9.8017 11.1167C8.62695 11.1167 7.67462 11.7119 7.67462 12.4461C7.67462 13.1804 8.62695 13.7756 9.8017 13.7756Z" fill="white"/>
<path d="M8.41024 12.4461C8.41024 11.7903 9.17015 11.2458 10.1695 11.1369C10.05 11.1239 9.92722 11.1167 9.8017 11.1167C8.62696 11.1167 7.67462 11.7119 7.67462 12.4461C7.67462 13.1804 8.62696 13.7756 9.8017 13.7756C9.92722 13.7756 10.05 13.7684 10.1695 13.7554C9.17015 13.6464 8.41024 13.1019 8.41024 12.4461Z" fill="#EDF6FF"/>
<path d="M8.25472 4.78153C9.5751 4.78153 10.6455 3.71115 10.6455 2.39077C10.6455 1.07038 9.5751 0 8.25472 0C6.93433 0 5.86395 1.07038 5.86395 2.39077C5.86395 3.71115 6.93433 4.78153 8.25472 4.78153Z" fill="#717ED4"/>
<path d="M8.2547 4.19593C9.25171 4.19593 10.0599 3.38769 10.0599 2.39069C10.0599 1.39368 9.25171 0.585449 8.2547 0.585449C7.2577 0.585449 6.44946 1.39368 6.44946 2.39069C6.44946 3.38769 7.2577 4.19593 8.2547 4.19593Z" fill="#E9A52D"/>
<path d="M7.55024 3.09925C6.94168 2.4907 6.85892 1.55601 7.301 0.858154C7.18638 0.929596 7.07781 1.01461 6.97821 1.11421C6.27321 1.81921 6.27321 2.9622 6.97821 3.66716C7.68324 4.37223 8.82627 4.37219 9.53123 3.66716C9.62767 3.57072 9.71043 3.46588 9.78047 3.35531C9.08384 3.78969 8.15563 3.70471 7.55024 3.09925Z" fill="#E38523"/>
<path d="M6.97821 1.11421C6.27321 1.8192 6.27321 2.9622 6.97821 3.66716L9.53123 1.11421C8.82627 0.409179 7.6832 0.409214 6.97821 1.11421Z" fill="#E38523"/>
<path d="M5.78293 15.8772H4.34253L4.3972 16.0943C4.91881 16.5151 5.49069 16.876 6.10206 17.1674L5.78293 15.8772Z" fill="#84004F"/>
<path d="M7.301 0.858154C7.18638 0.929596 7.07781 1.01461 6.97821 1.11421C6.27321 1.81921 6.27321 2.9622 6.97821 3.66716L7.54823 3.09714C6.94154 2.48859 6.85941 1.5552 7.301 0.858154Z" fill="#D76718"/>
<path d="M2.21306 4.95305L1.93292 4.57622C1.8972 4.52816 1.8837 4.46727 1.89541 4.40869L1.3295 4.72389C1.27736 4.75296 1.24023 4.8031 1.22771 4.86146C1.21516 4.91979 1.22842 4.98072 1.264 5.02864L1.50212 5.34897L2.21306 4.95305Z" fill="#DDEBFD"/>
<path d="M15.638 4.46509H14.2316C14.0383 4.46516 13.88 4.62334 13.8801 4.81667V7.34811H15.9896V4.81667C15.9896 4.62334 15.8314 4.46512 15.638 4.46509Z" fill="#B3094E"/>
<path d="M14.9497 4.46509H14.2316C14.0383 4.46516 13.88 4.62334 13.8801 4.81667V7.34811H14.5981V4.81667C14.5981 4.62334 14.7564 4.46516 14.9497 4.46509Z" fill="#84004F"/>
</g>
<defs>
<clipPath id="clip0_333_8387">
<rect width="18.0011" height="18.0011" fill="white" transform="translate(0.921509)"/>
</clipPath>
</defs>
</svg>
