<svg width="19" height="19" viewBox="0 0 19 19" fill="none" xmlns="http://www.w3.org/2000/svg">
<path d="M12.5317 4.68042H11.149C10.8132 4.68042 10.5461 4.9627 10.5648 5.29792L11.0849 14.6585C11.1022 14.9685 11.3587 15.211 11.6691 15.211H15.2425C15.5528 15.211 15.8094 14.9685 15.8266 14.6585L16.2952 6.22491C15.9594 6.35947 15.5941 6.43552 15.2109 6.43552C14.0142 6.43552 12.9842 5.71213 12.5317 4.68042Z" fill="#FAB400"/>
<path d="M11.1156 15.6512C10.769 15.4637 10.5242 15.1101 10.5008 14.6906L10.0746 7.02051H4.68026C4.03409 7.02051 3.51019 7.54441 3.51019 8.19058V16.3811C3.51019 17.0272 4.03409 17.5511 4.68026 17.5511H10.5306C10.75 17.5511 10.9527 17.4871 11.1282 17.3821C11.1224 17.3414 11.1156 17.301 11.1156 17.2586V15.6512Z" fill="#3CC8B4"/>
<path d="M4.68026 16.3811V8.19058C4.68026 7.54441 5.20416 7.02051 5.85033 7.02051H4.68026C4.03409 7.02051 3.51019 7.54441 3.51019 8.19058V16.3811C3.51019 17.0272 4.03409 17.5511 4.68026 17.5511H5.85033C5.20416 17.5511 4.68026 17.0272 4.68026 16.3811Z" fill="#1EAA96"/>
<path d="M9.36055 7.02056H5.85034V5.26545C5.85034 4.94222 6.11214 4.68042 6.43538 4.68042H8.77551C9.09875 4.68042 9.36055 4.94222 9.36055 5.26545V7.02056Z" fill="#505050"/>
<path d="M7.60545 4.68042H6.43538C6.11214 4.68042 5.85034 4.94222 5.85034 5.26545V7.02056H7.02041V5.26545C7.02041 4.94222 7.28221 4.68042 7.60545 4.68042Z" fill="#3C3C3C"/>
<path d="M9.36054 2.34033H4.68026C4.03409 2.34033 3.51019 2.86423 3.51019 3.5104H7.0204V4.68047H8.19047V3.5104H9.36054V2.34033Z" fill="#F0F0F0"/>
<path d="M5.85033 2.34033H4.68026C4.03409 2.34033 3.51019 2.86423 3.51019 3.5104H4.68026C4.68026 2.86423 5.20416 2.34033 5.85033 2.34033Z" fill="#D2D2D2"/>
<path d="M7.60546 14.6261C8.89788 14.6261 9.9456 13.5784 9.9456 12.2859C9.9456 10.9935 8.89788 9.9458 7.60546 9.9458C6.31304 9.9458 5.26532 10.9935 5.26532 12.2859C5.26532 13.5784 6.31304 14.6261 7.60546 14.6261Z" fill="#FA6450"/>
<path d="M12.2216 14.6585L11.7016 5.29792C11.6828 4.9627 11.9499 4.68042 12.2857 4.68042H11.149C10.8132 4.68042 10.5461 4.9627 10.5648 5.29792L11.0849 14.6585C11.1022 14.9685 11.3587 15.211 11.6691 15.211H12.8058C12.4952 15.211 12.2389 14.9685 12.2216 14.6585Z" fill="#DC9600"/>
<path d="M14.9184 17.5511H11.9932C11.8317 17.5511 11.7007 17.42 11.7007 17.2586V15.5035C11.7007 15.342 11.8317 15.2109 11.9932 15.2109H14.9184C15.0798 15.2109 15.2109 15.342 15.2109 15.5035V17.2586C15.2109 17.42 15.0798 17.5511 14.9184 17.5511Z" fill="#505050"/>
<path d="M12.8708 17.2586V15.5035C12.8708 15.342 13.0018 15.2109 13.1633 15.2109H11.9932C11.8317 15.2109 11.7007 15.342 11.7007 15.5035V17.2586C11.7007 17.42 11.8317 17.5511 11.9932 17.5511H13.1633C13.0018 17.5511 12.8708 17.42 12.8708 17.2586Z" fill="#3C3C3C"/>
<path d="M10.9205 11.7009H15.991L16.1858 8.19067H10.7257L10.9205 11.7009Z" fill="#F0F0F0"/>
<path d="M11.8624 8.19067H10.7257L10.9205 11.7009H12.0572L11.8624 8.19067Z" fill="#D2D2D2"/>
<path d="M15.2109 5.85044C16.5033 5.85044 17.551 4.80273 17.551 3.5103C17.551 2.21788 16.5033 1.17017 15.2109 1.17017C13.9184 1.17017 12.8707 2.21788 12.8707 3.5103C12.8707 4.80273 13.9184 5.85044 15.2109 5.85044Z" fill="#3CC8B4"/>
<path d="M13.4558 3.5103C13.4558 2.31713 14.3494 1.33456 15.5034 1.19035C15.4074 1.17836 15.31 1.17017 15.2109 1.17017C13.9185 1.17017 12.8707 2.21796 12.8707 3.5103C12.8707 4.80265 13.9185 5.85044 15.2109 5.85044C15.31 5.85044 15.4074 5.84225 15.5034 5.83026C14.3494 5.68605 13.4558 4.70348 13.4558 3.5103Z" fill="#1EAA96"/>
<path d="M16.6735 2.92537L14.9184 4.68047L13.7483 3.5104L14.3333 2.92537L14.9184 3.5104L16.0884 2.34033L16.6735 2.92537Z" fill="#F0F0F0"/>
<path d="M8.7755 11.9933H7.89795V11.1157H7.31292V11.9933H6.43536V12.5783H7.31292V13.4559H7.89795V12.5783H8.7755V11.9933Z" fill="#F0F0F0"/>
</svg>
