<svg width="20" height="20" viewBox="0 0 20 20" fill="none" xmlns="http://www.w3.org/2000/svg">
<g clip-path="url(#clip0_333_8362)">
<path d="M14.7706 3.78185C13.7185 1.86811 11.8111 0.42825 9.72056 0.427491C7.63003 0.426731 5.72268 1.86811 4.67058 3.78185C4.12577 4.77335 4.22783 6.75027 4.57185 8.32728H14.8694C15.2133 6.75042 15.3154 4.7735 14.7706 3.78185Z" fill="#9E5969"/>
<path d="M13.9672 8.07029L13.5769 10.8305C14.2712 10.9439 15.0664 10.1444 15.1816 9.45031C15.3231 8.59748 14.8371 7.99845 13.9672 8.07029Z" fill="#FFA39C"/>
<path d="M4.2596 9.45031C4.37473 10.1444 5.16999 10.9439 5.86425 10.8305L5.47391 8.07029C4.60407 7.99845 4.11804 8.59748 4.2596 9.45031Z" fill="#FFA39C"/>
<path d="M13.7303 9.68072C13.6919 9.68085 13.6541 9.67126 13.6203 9.65284C13.5866 9.63443 13.5581 9.60779 13.5375 9.57541C13.5168 9.54302 13.5047 9.50593 13.5022 9.4676C13.4997 9.42926 13.507 9.39092 13.5233 9.35614C13.6143 9.2046 13.7459 9.08151 13.9032 9.00071C14.0604 8.91991 14.2371 8.88462 14.4133 8.89882C14.4732 8.90495 14.5282 8.93454 14.5664 8.98112C14.6045 9.0277 14.6227 9.08748 14.6169 9.14741C14.6111 9.20733 14.5818 9.26252 14.5354 9.30092C14.4891 9.33932 14.4294 9.35781 14.3694 9.35234C14.2865 9.34742 14.2037 9.36283 14.1282 9.39725C14.0526 9.43166 13.9866 9.48403 13.9359 9.54979C13.9176 9.58886 13.8885 9.6219 13.8521 9.64508C13.8157 9.66826 13.7735 9.68062 13.7303 9.68072Z" fill="#FF6C73"/>
<path d="M5.71176 9.68058C5.66841 9.68062 5.62595 9.6683 5.58937 9.64505C5.55278 9.62181 5.52358 9.58861 5.5052 9.54935C5.45439 9.48374 5.38838 9.43147 5.31285 9.39707C5.23733 9.36267 5.15457 9.34717 5.07172 9.3519C5.04185 9.35496 5.01167 9.35208 4.98292 9.34344C4.95416 9.3348 4.9274 9.32055 4.90417 9.30153C4.88094 9.28251 4.8617 9.25908 4.84755 9.2326C4.8334 9.20611 4.82463 9.17709 4.82174 9.14721C4.81885 9.11732 4.82189 9.08716 4.83069 9.05845C4.8395 9.02974 4.85389 9.00306 4.87304 8.97994C4.8922 8.95681 4.91573 8.9377 4.94229 8.92371C4.96886 8.90971 4.99793 8.9011 5.02783 8.89837C5.20407 8.88407 5.38079 8.91931 5.53806 9.00012C5.69533 9.08093 5.82688 9.20409 5.91787 9.3557C5.93408 9.39039 5.94129 9.42862 5.93882 9.46683C5.93635 9.50505 5.92428 9.54203 5.90374 9.57435C5.8832 9.60667 5.85484 9.63329 5.82128 9.65175C5.78773 9.67021 5.75006 9.67992 5.71176 9.67997V9.68058Z" fill="#FF6C73"/>
<path d="M16.4429 19.0858H2.99741C2.94516 19.0856 2.89382 19.0721 2.84832 19.0464C2.80282 19.0207 2.76468 18.9838 2.73755 18.9391C2.71043 18.8944 2.69523 18.8436 2.69342 18.7914C2.69161 18.7391 2.70324 18.6873 2.72721 18.6409C2.94039 18.2173 3.22733 17.8352 3.57457 17.5122C4.31273 16.8272 6.18546 16.487 7.14384 16.001C7.39599 15.8796 7.61709 15.7023 7.79028 15.4825C7.96348 15.2627 8.0842 15.0063 8.14324 14.7328C8.15843 14.6735 8.17058 14.6158 8.17969 14.5581C8.22233 14.2346 8.24869 13.9092 8.25867 13.583H11.1809C11.1914 13.9087 11.2183 14.2336 11.2614 14.5566C11.2705 14.6143 11.2827 14.6735 11.2979 14.7328C11.3569 15.0063 11.4776 15.2627 11.6508 15.4825C11.824 15.7023 12.0451 15.8796 12.2973 16.001C13.2541 16.487 15.1269 16.8272 15.8665 17.5122C16.2129 17.8356 16.4994 18.2176 16.7128 18.6406C16.7369 18.687 16.7486 18.7388 16.7468 18.7911C16.745 18.8433 16.7299 18.8942 16.7028 18.9389C16.6757 18.9836 16.6376 19.0206 16.5921 19.0463C16.5466 19.072 16.4952 19.0856 16.4429 19.0858Z" fill="#FFA39C"/>
<path d="M11.2614 14.5566C10.8507 14.7905 10.4066 14.96 9.94458 15.0593C9.7971 15.0927 9.644 15.0927 9.49652 15.0593C9.03479 14.9597 8.59081 14.7907 8.17969 14.5581C8.22232 14.2346 8.24868 13.9092 8.25867 13.583H11.1809C11.1914 13.9087 11.2183 14.2336 11.2614 14.5566Z" fill="#FF6C73"/>
<path d="M13.819 10.0091C13.5897 11.1756 13.1128 12.1143 12.4946 12.7248C12.487 12.7339 12.4779 12.7415 12.4703 12.7491C11.8855 13.3157 11.1413 13.9277 9.94295 14.192C9.79547 14.2254 9.64238 14.2254 9.49489 14.192C8.29653 13.9277 7.5523 13.3157 6.96754 12.7491C6.95995 12.7415 6.95084 12.7339 6.94324 12.7248C6.32204 12.1127 5.86487 11.1726 5.63704 10.0031C5.51482 9.36607 5.45934 8.71808 5.47149 8.06958C5.5049 5.3706 6.68048 6.74667 7.55078 4.23299C8.27769 2.12484 10.5383 2.34052 11.6951 3.75304C11.7882 3.86496 11.9116 3.94773 12.0505 3.9915C13.5693 4.47905 13.8913 5.94776 13.9642 8.06958C13.9902 8.71953 13.9415 9.37031 13.819 10.0091Z" fill="#FFB3A9"/>
<path d="M9.72059 10.3538C9.50811 10.3467 9.30551 10.2623 9.15072 10.1166C9.11334 10.0786 9.09161 10.0279 9.08984 9.97457C9.08807 9.92127 9.1064 9.86925 9.14118 9.82883C9.17597 9.7884 9.22467 9.76252 9.27764 9.75633C9.33061 9.75013 9.38397 9.76406 9.42715 9.79535C9.46352 9.83754 9.50857 9.87139 9.5592 9.89459C9.60984 9.91779 9.66489 9.9298 9.72059 9.9298C9.77629 9.9298 9.83134 9.91779 9.88198 9.89459C9.93262 9.87139 9.97766 9.83754 10.014 9.79535C10.0572 9.76406 10.1106 9.75013 10.1635 9.75633C10.2165 9.76252 10.2652 9.7884 10.3 9.82883C10.3348 9.86925 10.3531 9.92127 10.3513 9.97457C10.3496 10.0279 10.3278 10.0786 10.2905 10.1166C10.1357 10.2623 9.93307 10.3467 9.72059 10.3538Z" fill="#FF6C73"/>
<path d="M11.0433 11.3115C11.0349 11.2689 11.0099 11.2315 10.9739 11.2074C10.9378 11.1832 10.8937 11.1744 10.8512 11.1828H10.8486C10.6736 11.2187 10.4937 11.2239 10.317 11.198C10.273 11.1918 10.2298 11.1828 10.1788 11.1735C10.1063 11.1569 10.0315 11.1533 9.9578 11.1631C9.88065 11.1766 9.80734 11.2067 9.74288 11.2512C9.73592 11.2551 9.72808 11.2571 9.7201 11.2571C9.71212 11.2571 9.70428 11.2551 9.69732 11.2512C9.63286 11.2067 9.55955 11.1766 9.4824 11.1631C9.4087 11.1533 9.33386 11.1569 9.26141 11.1735C9.21038 11.1834 9.16724 11.1918 9.1232 11.198C8.94646 11.2239 8.76657 11.2187 8.5916 11.1828H8.58887C8.54923 11.1749 8.50808 11.182 8.47337 11.2027C8.43865 11.2234 8.41284 11.2562 8.4009 11.2949C8.38897 11.3335 8.39177 11.3751 8.40875 11.4118C8.42574 11.4485 8.45571 11.4775 8.49288 11.4934C8.70218 11.5836 8.92866 11.6269 9.15646 11.6204C9.21296 11.6187 9.27007 11.6139 9.31898 11.6101C9.36883 11.6071 9.41801 11.6228 9.45689 11.6541C9.53106 11.6992 9.61586 11.7238 9.70264 11.7253H9.73666C9.82343 11.7238 9.90823 11.6992 9.98241 11.6541C10.0213 11.6227 10.0706 11.607 10.1205 11.6101C10.1692 11.6139 10.2268 11.6187 10.283 11.6204C10.5107 11.6269 10.7372 11.5835 10.9464 11.4934C10.981 11.4788 11.0095 11.4527 11.0271 11.4196C11.0447 11.3865 11.0505 11.3483 11.0433 11.3115Z" fill="#FF6C73"/>
<path d="M9.72059 12.4966C9.60134 12.4959 9.48381 12.4681 9.37688 12.4153C9.34851 12.4033 9.32287 12.3856 9.30153 12.3633C9.28019 12.3411 9.26359 12.3148 9.25272 12.2859C9.24186 12.2571 9.23696 12.2263 9.23832 12.1955C9.23968 12.1647 9.24728 12.1345 9.26065 12.1068C9.27402 12.079 9.29289 12.0542 9.31611 12.034C9.33934 12.0137 9.36643 11.9984 9.39575 11.9889C9.42508 11.9794 9.45602 11.9759 9.48672 11.9787C9.51741 11.9815 9.54721 11.9906 9.57433 12.0052C9.6192 12.0292 9.66928 12.0417 9.72013 12.0417C9.77099 12.0417 9.82107 12.0292 9.86594 12.0052C9.91985 11.9823 9.9805 11.9811 10.0353 12.0017C10.0901 12.0224 10.1349 12.0633 10.1603 12.1161C10.1857 12.1689 10.1898 12.2294 10.1717 12.2851C10.1537 12.3408 10.1149 12.3874 10.0634 12.4153C9.95673 12.468 9.83953 12.4957 9.72059 12.4966Z" fill="#FF6C73"/>
<path d="M10.9466 6.6442C11.1529 6.55284 11.373 6.49682 11.5979 6.4785C11.8143 6.45462 12.0329 6.45692 12.2488 6.48533C12.4627 6.51365 12.6747 6.55499 12.8836 6.60912C13.0971 6.66 13.3032 6.73789 13.497 6.84089C13.5189 6.85329 13.5355 6.87337 13.5435 6.89725C13.5515 6.92113 13.5503 6.94712 13.5403 6.97021C13.5303 6.99331 13.512 7.01187 13.4891 7.02232C13.4662 7.03276 13.4402 7.03436 13.4162 7.0268L13.41 7.02467C13.2203 6.96837 13.0253 6.93167 12.8281 6.91516C12.6279 6.89673 12.4268 6.89019 12.2258 6.89557C12.0256 6.90119 11.8274 6.90104 11.6314 6.90924C11.4401 6.9186 11.2496 6.94006 11.061 6.97349L11.0535 6.97501C11.0115 6.98318 10.9679 6.97566 10.9311 6.95387C10.8942 6.93209 10.8666 6.89755 10.8535 6.85679C10.8404 6.81603 10.8427 6.77189 10.86 6.73271C10.8773 6.69353 10.9083 6.66204 10.9472 6.6442H10.9466Z" fill="#9E5969"/>
<path d="M11.1612 8.36591C11.2855 8.40718 11.4172 8.42112 11.5474 8.40676C11.6913 8.39399 11.8334 8.36547 11.971 8.32171C12.0415 8.29938 12.1123 8.27614 12.1805 8.24805C12.2156 8.2359 12.3969 8.15525 12.3969 8.15525C12.4957 8.11122 12.6032 8.09044 12.7113 8.09449C12.7712 8.09689 12.8297 8.11376 12.8817 8.14368C12.9336 8.1736 12.9776 8.21566 13.0098 8.26627C13.0189 8.28275 13.0231 8.30148 13.022 8.32027C13.0209 8.33907 13.0144 8.35716 13.0034 8.37244C12.9925 8.38773 12.9774 8.39958 12.9599 8.40663C12.9424 8.41367 12.9233 8.41561 12.9048 8.41223L12.8823 8.40813C12.83 8.39857 12.776 8.40421 12.7268 8.42438C12.6724 8.44419 12.6204 8.47029 12.572 8.50215C12.5568 8.51248 12.4695 8.56776 12.4695 8.56776C12.4297 8.58963 12.3899 8.61333 12.3492 8.63186C12.2676 8.67032 12.1834 8.7033 12.0974 8.73058C11.9214 8.78658 11.7374 8.81321 11.5527 8.80941C11.3513 8.80964 11.1555 8.74267 10.9964 8.6191C10.9692 8.59622 10.9509 8.56455 10.9447 8.52958C10.9384 8.49461 10.9447 8.45856 10.9622 8.4277C10.9798 8.39684 11.0077 8.37312 11.041 8.36066C11.0742 8.34821 11.1108 8.34781 11.1443 8.35953L11.1612 8.36591Z" fill="#9E5969"/>
<path d="M8.44475 8.61897C8.28563 8.74252 8.08985 8.80949 7.8884 8.80928C7.70372 8.81289 7.5197 8.78605 7.34374 8.72985C7.2577 8.70257 7.17357 8.66959 7.09192 8.63112C7.05121 8.61183 6.88399 8.51174 6.86911 8.50142C6.82072 8.46956 6.76878 8.44346 6.71434 8.42365C6.66511 8.40348 6.61114 8.39784 6.55881 8.4074L6.53633 8.4115C6.51781 8.41485 6.49872 8.41289 6.48127 8.40584C6.46382 8.3988 6.44872 8.38695 6.43773 8.37168C6.42673 8.35641 6.42028 8.33833 6.41913 8.31955C6.41798 8.30077 6.42217 8.28204 6.43122 8.26554C6.46345 8.21494 6.50744 8.17289 6.55943 8.14298C6.61143 8.11307 6.66989 8.09618 6.72983 8.09376C6.83789 8.0897 6.94545 8.11049 7.04423 8.15451C7.04423 8.15451 7.22558 8.23516 7.26066 8.24731C7.32886 8.27556 7.39964 8.29865 7.47011 8.32098C7.60777 8.36475 7.74983 8.39327 7.89371 8.40603C8.0239 8.42039 8.15565 8.40645 8.27996 8.36518L8.29697 8.35895C8.33049 8.34717 8.36708 8.34753 8.40037 8.35994C8.43366 8.37235 8.46154 8.39605 8.47917 8.42689C8.4968 8.45774 8.50305 8.4938 8.49685 8.52878C8.49064 8.56376 8.47237 8.59546 8.44521 8.61837L8.44475 8.61897Z" fill="#9E5969"/>
<path d="M8.39281 6.97349C8.20409 6.94004 8.01345 6.91859 7.82203 6.90924C7.6261 6.90104 7.42713 6.90119 7.22786 6.89557C7.02686 6.89018 6.82571 6.89672 6.62549 6.91516C6.42829 6.93166 6.23331 6.96835 6.04362 7.02467L6.03724 7.02665C6.01319 7.03444 5.9871 7.033 5.96405 7.02261C5.941 7.01221 5.92265 6.99361 5.91256 6.97043C5.90248 6.94725 5.90138 6.92114 5.90949 6.89719C5.9176 6.87325 5.93434 6.85318 5.95644 6.84089C6.15025 6.73789 6.35639 6.66 6.5699 6.60912C6.77876 6.55499 6.99072 6.51365 7.20462 6.48533C7.42055 6.45692 7.63911 6.45462 7.85559 6.4785C8.08045 6.4968 8.30061 6.55282 8.50687 6.6442C8.54565 6.66215 8.57653 6.69366 8.59369 6.7328C8.61086 6.77194 8.61311 6.816 8.60004 6.85669C8.58697 6.89738 8.55948 6.93188 8.52273 6.9537C8.48599 6.97552 8.44253 6.98315 8.40055 6.97516L8.39281 6.97349Z" fill="#9E5969"/>
<path d="M6.95171 12.7249C6.3305 12.1128 5.87333 11.1727 5.64551 10.0032C6.2576 9.79813 6.98664 10.1262 7.34357 10.8006C7.7248 11.5175 7.5471 12.3619 6.95171 12.7249Z" fill="#FFE1E1"/>
<path d="M13.8275 10.0091C13.5982 11.1756 13.1212 12.1142 12.5031 12.7248C11.9062 12.3633 11.7285 11.5173 12.1097 10.8004C12.4712 10.12 13.2109 9.79193 13.8275 10.0091Z" fill="#FFE1E1"/>
<path d="M7.32627 12.5113C7.29899 12.5112 7.27223 12.5038 7.24881 12.4898C7.22539 12.4757 7.20617 12.4557 7.19318 12.4317C7.18019 12.4077 7.1739 12.3807 7.17498 12.3534C7.17605 12.3261 7.18446 12.2997 7.1993 12.2768C7.22306 12.2401 7.24471 12.2021 7.26415 12.163C7.27274 12.1447 7.2849 12.1283 7.29992 12.1147C7.31494 12.1012 7.33252 12.0907 7.35162 12.0841C7.37072 12.0774 7.39096 12.0746 7.41115 12.0759C7.43135 12.0771 7.45108 12.0824 7.4692 12.0914C7.48733 12.1004 7.50347 12.1129 7.51668 12.1283C7.5299 12.1436 7.53992 12.1614 7.54616 12.1806C7.5524 12.1999 7.55473 12.2202 7.55301 12.2403C7.5513 12.2605 7.54558 12.2801 7.53618 12.298C7.51165 12.3476 7.48427 12.3956 7.45416 12.442C7.44034 12.4633 7.42139 12.4808 7.39905 12.4929C7.3767 12.505 7.35168 12.5113 7.32627 12.5113ZM7.54362 11.8103H7.53648C7.51656 11.8094 7.497 11.8046 7.47895 11.7961C7.46089 11.7876 7.44468 11.7757 7.43123 11.7609C7.41779 11.7462 7.40739 11.729 7.40061 11.7102C7.39383 11.6914 7.39082 11.6715 7.39174 11.6516C7.39265 11.6313 7.3931 11.6106 7.3931 11.5909C7.3931 11.5661 7.3931 11.5421 7.39128 11.5183C7.39028 11.4983 7.39322 11.4784 7.39994 11.4596C7.40665 11.4407 7.417 11.4234 7.4304 11.4086C7.45746 11.3787 7.49529 11.3608 7.53557 11.3588C7.57585 11.3568 7.61528 11.3708 7.64519 11.3979C7.6751 11.4249 7.69303 11.4628 7.69505 11.5031C7.69657 11.5327 7.69733 11.5621 7.69717 11.5916C7.69717 11.6162 7.69717 11.6413 7.6955 11.6663C7.69348 11.7052 7.67659 11.7419 7.64832 11.7687C7.62005 11.7955 7.58257 11.8104 7.54362 11.8103ZM7.40829 11.0863C7.37855 11.0863 7.34945 11.0776 7.32461 11.0612C7.29977 11.0449 7.28028 11.0216 7.26856 10.9943C7.25109 10.9529 7.2315 10.9121 7.21008 10.8717C7.19132 10.8365 7.1869 10.7955 7.19775 10.7571C7.20859 10.7188 7.23386 10.6861 7.26825 10.666C7.30221 10.6463 7.34256 10.6406 7.38064 10.6503C7.41872 10.6599 7.4515 10.6841 7.47193 10.7177C7.47497 10.7227 7.48013 10.7329 7.48256 10.7376C7.50383 10.7774 7.52706 10.8257 7.54802 10.8743C7.5579 10.8974 7.56189 10.9226 7.55963 10.9476C7.55738 10.9726 7.54895 10.9967 7.5351 11.0177C7.52125 11.0386 7.50242 11.0558 7.48029 11.0677C7.45816 11.0796 7.43342 11.0858 7.40829 11.0858V11.0863ZM6.97816 10.4818C6.9405 10.4818 6.90418 10.4679 6.87624 10.4426C6.84283 10.4122 6.8083 10.3837 6.77266 10.3571C6.7567 10.3451 6.74326 10.3301 6.73309 10.313C6.72293 10.2958 6.71625 10.2768 6.71343 10.2571C6.71061 10.2373 6.71171 10.2172 6.71666 10.1979C6.72161 10.1786 6.73031 10.1604 6.74228 10.1445C6.75425 10.1285 6.76924 10.1151 6.7864 10.1049C6.80357 10.0947 6.82256 10.0881 6.84231 10.0852C6.86205 10.0824 6.88216 10.0835 6.90148 10.0885C6.9208 10.0934 6.93896 10.1021 6.95492 10.1141C6.9979 10.1463 7.03997 10.1806 7.08053 10.2174C7.10331 10.2379 7.11932 10.265 7.12644 10.2948C7.13357 10.3247 7.13147 10.356 7.12044 10.3847C7.1094 10.4133 7.08994 10.4379 7.06462 10.4553C7.0393 10.4727 7.00931 10.482 6.97861 10.4819L6.97816 10.4818ZM6.33083 10.1325C6.31859 10.1325 6.3064 10.131 6.29453 10.1281C6.25191 10.1176 6.20876 10.1094 6.16527 10.1036C6.14499 10.1017 6.1253 10.0956 6.10739 10.0859C6.08948 10.0762 6.07371 10.063 6.06102 10.047C6.04832 10.0311 6.03897 10.0127 6.03351 9.99311C6.02805 9.97348 6.02659 9.95295 6.02923 9.93274C6.03187 9.91253 6.03855 9.89306 6.04888 9.87549C6.0592 9.85792 6.07295 9.84261 6.08931 9.83046C6.10568 9.81831 6.12432 9.80959 6.14413 9.80479C6.16394 9.8 6.18451 9.79925 6.20461 9.80257C6.25926 9.80964 6.31347 9.81978 6.36697 9.83295C6.403 9.84182 6.43453 9.86357 6.45562 9.89409C6.47671 9.92461 6.4859 9.9618 6.48145 9.99863C6.477 10.0355 6.45923 10.0694 6.43148 10.094C6.40373 10.1187 6.36793 10.1324 6.33083 10.1325Z" fill="#FF8E88"/>
<path d="M11.9999 12.4421C11.9698 12.3957 11.9424 12.3476 11.9179 12.2981C11.9085 12.2802 11.9027 12.2606 11.901 12.2404C11.8993 12.2202 11.9016 12.1999 11.9079 12.1807C11.9141 12.1614 11.9241 12.1436 11.9374 12.1283C11.9506 12.113 11.9667 12.1005 11.9848 12.0915C12.003 12.0825 12.0227 12.0772 12.0429 12.0759C12.0631 12.0747 12.0833 12.0775 12.1024 12.0841C12.1215 12.0908 12.1391 12.1012 12.1541 12.1148C12.1691 12.1283 12.1813 12.1447 12.1899 12.1631C12.2094 12.2021 12.231 12.2401 12.2547 12.2768C12.2659 12.2935 12.2736 12.3123 12.2774 12.3321C12.2812 12.3518 12.2811 12.3721 12.277 12.3918C12.273 12.4114 12.265 12.4301 12.2537 12.4467C12.2423 12.4633 12.2278 12.4775 12.2109 12.4884C12.1941 12.4993 12.1752 12.5068 12.1554 12.5104C12.1357 12.514 12.1154 12.5136 12.0957 12.5093C12.0761 12.505 12.0575 12.4968 12.0411 12.4853C12.0246 12.4738 12.0106 12.4591 11.9999 12.4421ZM11.7585 11.6655C11.7575 11.6404 11.757 11.6154 11.757 11.5908C11.757 11.5613 11.757 11.5318 11.759 11.5022C11.761 11.4619 11.7789 11.4241 11.8089 11.397C11.8388 11.37 11.8782 11.3559 11.9185 11.3579C11.9588 11.3599 11.9966 11.3779 12.0236 11.4078C12.0507 11.4377 12.0648 11.4771 12.0628 11.5174C12.0617 11.5412 12.0609 11.5652 12.0611 11.59C12.0611 11.6105 12.0611 11.6312 12.0623 11.6508C12.0632 11.6707 12.0602 11.6906 12.0534 11.7093C12.0467 11.7281 12.0362 11.7454 12.0228 11.7601C12.0094 11.7748 11.9932 11.7868 11.9751 11.7952C11.957 11.8037 11.9375 11.8086 11.9176 11.8095H11.9104C11.8715 11.8095 11.834 11.7946 11.8057 11.7678C11.7775 11.741 11.7606 11.7044 11.7585 11.6655ZM11.9864 11.0742C11.968 11.0664 11.9514 11.055 11.9374 11.0407C11.9235 11.0265 11.9124 11.0096 11.905 10.9911C11.8976 10.9726 11.8939 10.9528 11.8941 10.9328C11.8943 10.9128 11.8985 10.8931 11.9063 10.8748C11.9274 10.8257 11.9505 10.7774 11.9719 10.7381C11.9742 10.7329 11.9795 10.7229 11.9824 10.7182C12.0028 10.6846 12.0356 10.6604 12.0737 10.6508C12.1118 10.6411 12.1521 10.6468 12.1861 10.6665C12.2205 10.6866 12.2458 10.7193 12.2567 10.7576C12.2676 10.796 12.2632 10.837 12.2444 10.8722C12.2228 10.9127 12.2033 10.9536 12.1858 10.9948C12.1741 11.0221 12.1546 11.0454 12.1297 11.0618C12.1049 11.0781 12.0758 11.0868 12.0461 11.0868C12.0253 11.0868 12.0048 11.0825 11.9858 11.0742H11.9864ZM12.3633 10.4319C12.3499 10.4171 12.3396 10.3998 12.3329 10.381C12.3262 10.3622 12.3233 10.3423 12.3243 10.3223C12.3253 10.3024 12.3302 10.2829 12.3387 10.2648C12.3473 10.2468 12.3593 10.2306 12.3741 10.2173C12.4146 10.1805 12.4565 10.1461 12.4997 10.114C12.5157 10.102 12.5338 10.0933 12.5532 10.0884C12.5725 10.0834 12.5926 10.0823 12.6123 10.0851C12.6321 10.088 12.6511 10.0946 12.6682 10.1048C12.6854 10.115 12.7004 10.1284 12.7124 10.1444C12.7243 10.1603 12.733 10.1785 12.738 10.1978C12.7429 10.2171 12.744 10.2372 12.7412 10.257C12.7384 10.2767 12.7317 10.2957 12.7216 10.3129C12.7114 10.33 12.6979 10.345 12.682 10.357C12.6464 10.3835 12.6118 10.412 12.5783 10.4425C12.5635 10.4559 12.5462 10.4662 12.5274 10.473C12.5086 10.4797 12.4886 10.4826 12.4687 10.4816C12.4488 10.4806 12.4292 10.4757 12.4112 10.4671C12.3932 10.4586 12.377 10.4465 12.3636 10.4317L12.3633 10.4319ZM12.9759 10.0168C12.9663 9.97767 12.9727 9.93635 12.9935 9.90192C13.0144 9.86749 13.0481 9.84275 13.0872 9.83316C13.1407 9.81999 13.1948 9.80985 13.2494 9.80278C13.2695 9.79949 13.2901 9.80027 13.3098 9.80507C13.3296 9.80988 13.3482 9.81861 13.3646 9.83075C13.3809 9.84289 13.3946 9.85819 13.4049 9.87574C13.4153 9.89329 13.4219 9.91273 13.4246 9.93291C13.4272 9.95309 13.4258 9.9736 13.4204 9.99321C13.4149 10.0128 13.4056 10.0312 13.3929 10.0471C13.3803 10.063 13.3646 10.0763 13.3467 10.086C13.3288 10.0958 13.3092 10.1018 13.2889 10.1038C13.2454 10.1096 13.2022 10.1178 13.1595 10.1283C13.1476 10.1312 13.1355 10.1327 13.1232 10.1327C13.0891 10.1329 13.0558 10.1215 13.0289 10.1005C13.002 10.0795 12.9829 10.05 12.9748 10.0168H12.9759Z" fill="#FF8E88"/>
<path d="M14.1091 11.3376C14.0263 11.3214 13.9405 11.3379 13.8697 11.3837C13.7988 11.4295 13.7485 11.501 13.7294 11.5831L14.1991 14.7005C14.73 14.3547 14.9028 14.0614 14.8961 13.2989C14.8937 12.9742 14.5445 11.4183 14.1091 11.3376Z" fill="#FFA39C"/>
<path d="M14.6475 19.0875C14.6475 19.0875 13.8577 17.3133 13.7488 16.8021C13.6176 16.1836 14.3573 14.6356 14.3573 14.6356C14.5549 14.045 14.5446 13.4045 14.3281 12.8206C14.1259 12.2756 13.87 11.6002 13.6917 11.0801C13.6661 11.0049 13.6158 10.9406 13.549 10.8977C13.4821 10.8548 13.4027 10.8358 13.3236 10.8439C13.2446 10.8519 13.1706 10.8865 13.1138 10.9421C13.057 10.9976 13.0207 11.0707 13.0108 11.1496C13.0108 11.1546 13.0098 11.1596 13.0093 11.1648C12.9832 11.4685 13.1789 12.7071 13.2658 13.0964C13.3497 13.4716 12.7798 13.9889 12.5099 14.3874C11.6464 15.6584 12.0628 16.3868 12.2427 16.8024C12.3966 17.1576 12.8228 19.0884 12.8228 19.0884L14.6475 19.0875Z" fill="#FFC2B6"/>
<path d="M5.33204 11.3375C4.89659 11.4181 4.54741 12.974 4.54467 13.2988C4.53814 14.0612 4.71083 14.3545 5.24167 14.7003L5.71084 11.5829C5.69167 11.501 5.64152 11.4296 5.57089 11.3839C5.50027 11.3381 5.41466 11.3215 5.33204 11.3375Z" fill="#FFA39C"/>
<path d="M4.79358 19.0875C4.79358 19.0875 5.58338 17.3133 5.69228 16.8021C5.8235 16.1836 5.08383 14.6356 5.08383 14.6356C4.88617 14.045 4.89646 13.4045 5.11299 12.8206C5.31515 12.2756 5.57107 11.6002 5.74938 11.0801C5.77496 11.0049 5.82528 10.9406 5.89214 10.8977C5.95899 10.8548 6.03842 10.8358 6.11746 10.8439C6.19649 10.8519 6.27046 10.8865 6.32728 10.9421C6.3841 10.9976 6.42041 11.0707 6.43028 11.1496C6.43028 11.1546 6.43134 11.1596 6.4318 11.1648C6.45792 11.4685 6.26215 12.7071 6.17527 13.0964C6.09143 13.4716 6.6613 13.9889 6.93119 14.3874C7.79465 15.6584 7.37834 16.3868 7.19836 16.8024C7.0445 17.1576 6.61831 19.0884 6.61831 19.0884L4.79358 19.0875Z" fill="#FFC2B6"/>
</g>
<defs>
<clipPath id="clip0_333_8362">
<rect width="19.4411" height="19.4411" fill="white"/>
</clipPath>
</defs>
</svg>
